<svg width="1920" height="567" xmlns="http://www.w3.org/2000/svg" xmlns:xlink="http://www.w3.org/1999/xlink">
  <defs>
    <linearGradient x1="50%" y1="0%" x2="50%" y2="100%" id="b">
      <stop stop-color="#FFFCF8" offset="0%"/>
      <stop stop-color="#FFF8EE" offset="100%"/>
    </linearGradient>
    <path id="a" d="M-239 0h1920v567H-239z"/>
    <linearGradient x1="50%" y1="0%" x2="50%" y2="42.733%" id="c">
      <stop stop-color="#DAF1FF" offset="0%"/>
      <stop stop-color="#F8FDFF" offset="100%"/>
    </linearGradient>
    <linearGradient x1="50%" y1="1.719%" x2="50%" y2="61.788%" id="e">
      <stop stop-color="#F4E4B5" offset="54.43%"/>
      <stop stop-color="#F9F1DB" offset="78.461%"/>
      <stop stop-color="#FFF" offset="99.119%"/>
    </linearGradient>
    <linearGradient x1="91.048%" y1="52.269%" x2="19.228%" y2="41.808%" id="f">
      <stop stop-color="#FFF8EF" offset="0%"/>
      <stop stop-color="#FFE7BF" offset="100%"/>
    </linearGradient>
    <path id="g" d="M0 0h425v42H0z"/>
    <path id="i" d="M0 18h412V0H0z"/>
    <linearGradient x1="91.048%" y1="51.445%" x2="19.228%" y2="44.785%" id="k">
      <stop stop-color="#FFF8EF" offset="0%"/>
      <stop stop-color="#FFE7BF" offset="100%"/>
    </linearGradient>
    <linearGradient x1="120.869%" y1="51.779%" x2="20.426%" y2="48.642%" id="l">
      <stop stop-color="#FFF8EF" offset="0%"/>
      <stop stop-color="#FADDAE" offset="100%"/>
    </linearGradient>
    <linearGradient x1="53.826%" y1="-14.751%" x2="53.826%" y2="77.863%" id="m">
      <stop stop-color="#FFF8EF" offset="0%"/>
      <stop stop-color="#FFEED2" offset="100%"/>
    </linearGradient>
    <linearGradient x1="50%" y1="-6.274%" x2="50%" y2="101.298%" id="n">
      <stop stop-color="#FFE9C6" offset="0%"/>
      <stop stop-color="#FFF9F1" offset="100%"/>
    </linearGradient>
    <linearGradient x1="91.048%" y1="55.279%" x2="19.228%" y2="30.946%" id="o">
      <stop stop-color="#FFF8EF" offset="0%"/>
      <stop stop-color="#FFEED2" offset="100%"/>
    </linearGradient>
    <linearGradient x1="91.048%" y1="55.071%" x2="19.228%" y2="31.695%" id="p">
      <stop stop-color="#FFF8EF" offset="0%"/>
      <stop stop-color="#FFEED2" offset="100%"/>
    </linearGradient>
    <linearGradient x1="91.048%" y1="52.608%" x2="19.228%" y2="40.587%" id="q">
      <stop stop-color="#FFF8EF" offset="0%"/>
      <stop stop-color="#FFEED2" offset="100%"/>
    </linearGradient>
  </defs>
  <g transform="translate(239)" fill="none" fill-rule="evenodd">
    <mask id="d" fill="#fff">
      <use xlink:href="#a"/>
    </mask>
    <use fill="url(#b)" xlink:href="#a"/>
    <path fill="url(#c)" mask="url(#d)" d="M-239 0h1920v250H-239z"/>
    <g mask="url(#d)">
      <g transform="translate(805 105)" fill-rule="nonzero">
        <ellipse fill="#F4E6BD" opacity=".22" cx="66" cy="66.5" rx="66" ry="66.5"/>
        <ellipse fill="#F4E6BD" opacity=".37" cx="66" cy="66.5" rx="49" ry="49.5"/>
        <ellipse fill="url(#e)" cx="66.5" cy="67" rx="39.5" ry="40"/>
      </g>
      <path d="M1827.565 66.55c-17.287-17.374-72.556-.733-95.93-9.054C1708.26 49.176 1610.626 8.063 1564 37.43V150h378V82.947c-27.757-3.181-97.148.979-114.435-16.396z" fill="url(#f)" fill-rule="nonzero" transform="rotate(-5 2243.448 16448.481)"/>
      <g transform="translate(589 166)">
        <mask id="h" fill="#fff">
          <use xlink:href="#g"/>
        </mask>
        <path d="M-139.519 40.328V14.382c0-5.909 4.771-10.7 10.656-10.7 5.885 0 10.656 4.791 10.656 10.7v25.946c0 .228-.02.449-.034.672h11.702c-.014-.223-.034-.444-.034-.672V14.382c0-5.909 4.771-10.7 10.656-10.7 5.886 0 10.656 4.791 10.656 10.7v25.946c0 .228-.019.449-.033.672h11.702c-.014-.223-.034-.444-.034-.672V14.382c0-5.909 4.77-10.7 10.656-10.7 5.885 0 10.656 4.791 10.656 10.7v25.946c0 .228-.02.449-.034.672h11.702c-.014-.223-.034-.444-.034-.672V14.382c0-5.909 4.771-10.7 10.656-10.7 5.886 0 10.657 4.791 10.657 10.7v25.946c0 .228-.02.449-.034.672H-7.7c-.014-.223-.034-.444-.034-.672V14.382c0-5.909 4.77-10.7 10.656-10.7 5.885 0 10.655 4.791 10.655 10.7v25.946c0 .228-.02.449-.033.672h11.702c-.015-.223-.033-.444-.033-.672V14.382c0-5.909 4.77-10.7 10.656-10.7 5.885 0 10.656 4.791 10.656 10.7v25.946c0 .228-.02.449-.034.672h11.702c-.014-.223-.035-.444-.035-.672V14.382c0-5.909 4.771-10.7 10.656-10.7 5.886 0 10.656 4.791 10.656 10.7v25.946c0 .228-.018.449-.033.672H91.14c-.014-.223-.033-.444-.033-.672V14.382c0-5.909 4.77-10.7 10.656-10.7 5.885 0 10.656 4.791 10.656 10.7v25.946c0 .228-.02.449-.035.672h11.702c-.013-.223-.034-.444-.034-.672V14.382c0-5.909 4.771-10.7 10.656-10.7 5.886 0 10.657 4.791 10.657 10.7v25.946c0 .228-.02.449-.034.672h11.702c-.014-.223-.033-.444-.033-.672V14.382c0-5.909 4.77-10.7 10.656-10.7 5.885 0 10.655 4.791 10.655 10.7v25.946c0 .228-.02.449-.034.672h11.702c-.014-.223-.033-.444-.033-.672V14.382c0-5.909 4.771-10.7 10.656-10.7 5.885 0 10.656 4.791 10.656 10.7v25.946c0 .228-.02.449-.034.672h11.702c-.014-.223-.034-.444-.034-.672V14.382c0-5.909 4.77-10.7 10.656-10.7 5.886 0 10.656 4.791 10.656 10.7v25.946c0 .228-.019.449-.034.672h11.702c-.014-.223-.033-.444-.033-.672V14.382c0-5.909 4.77-10.7 10.656-10.7 5.885 0 10.656 4.791 10.656 10.7v25.946c0 .228-.02.449-.033.672h11.7c-.013-.223-.033-.444-.033-.672V14.382c0-5.909 4.77-10.7 10.656-10.7 5.885 0 10.656 4.791 10.656 10.7v25.946c0 .228-.019.449-.034.672h11.702c-.013-.223-.033-.444-.033-.672V14.382c0-5.909 4.77-10.7 10.656-10.7 5.885 0 10.655 4.791 10.655 10.7v25.946c0 .228-.019.449-.033.672h11.702c-.015-.223-.034-.444-.034-.672V14.382c0-5.909 4.772-10.7 10.657-10.7 5.884 0 10.656 4.791 10.656 10.7v25.946c0 .228-.02.449-.035.672h11.702c-.013-.223-.034-.444-.034-.672V14.382c0-5.909 4.771-10.7 10.656-10.7 5.886 0 10.656 4.791 10.656 10.7v25.946c0 .228-.019.449-.033.672h11.702c-.015-.223-.034-.444-.034-.672V14.382c0-5.909 4.77-10.7 10.657-10.7 3.07 0 5.829 1.312 7.772 3.398V-1h-644v42h65.515c-.015-.223-.034-.444-.034-.672" fill="#F0DFC2" mask="url(#h)"/>
      </g>
      <g transform="translate(483 147)">
        <path d="M368 18h-59V1.468c0-.81.652-1.468 1.457-1.468h56.086c.805 0 1.457.658 1.457 1.468V18z" fill="#FFF"/>
        <path d="M312.73 8a.73.73 0 0 1-.73-.73V5.73a.73.73 0 0 1 .73-.73h1.54a.73.73 0 0 1 .73.73v1.54a.73.73 0 0 1-.73.73h-1.54zM317.73 8a.73.73 0 0 1-.73-.73V5.73a.73.73 0 0 1 .73-.73h1.54a.73.73 0 0 1 .73.73v1.54a.73.73 0 0 1-.73.73h-1.54zM321.73 8a.73.73 0 0 1-.73-.73V5.73a.73.73 0 0 1 .73-.73h1.54a.73.73 0 0 1 .73.73v1.54a.73.73 0 0 1-.73.73h-1.54zM326.73 8a.73.73 0 0 1-.73-.73V5.73a.73.73 0 0 1 .73-.73h1.54a.73.73 0 0 1 .73.73v1.54a.73.73 0 0 1-.73.73h-1.54zM347.73 8a.73.73 0 0 1-.73-.73V5.73a.73.73 0 0 1 .73-.73h1.54a.73.73 0 0 1 .73.73v1.54a.73.73 0 0 1-.73.73h-1.54zM352.73 8a.73.73 0 0 1-.73-.73V5.73a.73.73 0 0 1 .73-.73h1.54a.73.73 0 0 1 .73.73v1.54a.73.73 0 0 1-.73.73h-1.54zM357.73 8a.73.73 0 0 1-.73-.73V5.73a.73.73 0 0 1 .73-.73h1.54a.73.73 0 0 1 .73.73v1.54a.73.73 0 0 1-.73.73h-1.54zM361.73 8a.73.73 0 0 1-.73-.73V5.73a.73.73 0 0 1 .73-.73h1.54a.73.73 0 0 1 .73.73v1.54a.73.73 0 0 1-.73.73h-1.54z" fill-opacity=".2" fill="#289BE3"/>
        <path d="M342.939 16h-9.879c-.586 0-1.06-.49-1.06-1.095V3.095c0-.605.474-1.095 1.06-1.095h9.879c.585 0 1.061.49 1.061 1.095v11.81c0 .605-.476 1.095-1.061 1.095" fill="#E7E7E7"/>
        <path d="M335.625 10c-.346 0-.625-.231-.625-.517V5.517c0-.286.28-.517.625-.517h1.75c.345 0 .625.231.625.517v3.966c0 .286-.28.517-.626.517h-1.75zM339.626 10c-.346 0-.626-.231-.626-.517V5.517c0-.286.28-.517.626-.517h1.75c.345 0 .624.231.624.517v3.966c0 .286-.28.517-.625.517h-1.75z" fill-opacity=".2" fill="#289BE3"/>
        <mask id="j" fill="#fff">
          <use xlink:href="#i"/>
        </mask>
        <path fill="#FF99A0" mask="url(#j)" d="M310 14h56v-2h-56z"/>
        <path d="M412 18h-40V1.085c0-.599.485-1.085 1.082-1.085h20.965C403.962 0 412 8.059 412 18" fill="#FBFBFB" mask="url(#j)"/>
        <path d="M387.135 16h-6.271c-.477 0-.864-.4-.864-.895V2.895c0-.494.387-.895.864-.895h6.27c.478 0 .866.4.866.896v12.209c0 .494-.388.895-.865.895" fill="#E7E7E7" mask="url(#j)"/>
        <path d="M383.625 10c-.346 0-.625-.231-.625-.517V5.517c0-.286.28-.517.625-.517h1.75c.345 0 .625.231.625.517v3.966c0 .286-.28.517-.626.517h-1.75z" fill="#289BE3" opacity=".2" mask="url(#j)"/>
        <path d="M408.794 12H395v2h14a46.836 46.836 0 0 0-.206-2" fill="#EC3F4A" mask="url(#j)"/>
        <path d="M409.882 15H402v2h8a81.088 81.088 0 0 0-.118-2" fill="#5FA25A" mask="url(#j)"/>
        <path d="M306 18h-59V1.468c0-.81.653-1.468 1.458-1.468h56.084c.805 0 1.458.658 1.458 1.468V18z" fill="#FFF" mask="url(#j)"/>
        <path d="M250.73 8a.73.73 0 0 1-.73-.73V5.73a.73.73 0 0 1 .73-.73h1.54a.73.73 0 0 1 .73.73v1.54a.73.73 0 0 1-.73.73h-1.54zM255.73 8a.73.73 0 0 1-.73-.73V5.73a.73.73 0 0 1 .73-.73h1.54a.73.73 0 0 1 .73.73v1.54a.73.73 0 0 1-.73.73h-1.54zM260.73 8a.73.73 0 0 1-.73-.73V5.73a.73.73 0 0 1 .73-.73h1.54a.73.73 0 0 1 .73.73v1.54a.73.73 0 0 1-.73.73h-1.54zM264.73 8a.73.73 0 0 1-.73-.73V5.73a.73.73 0 0 1 .73-.73h1.54a.73.73 0 0 1 .73.73v1.54a.73.73 0 0 1-.73.73h-1.54zM286.73 8a.73.73 0 0 1-.73-.73V5.73a.73.73 0 0 1 .73-.73h1.54a.73.73 0 0 1 .73.73v1.54a.73.73 0 0 1-.73.73h-1.54zM290.73 8a.73.73 0 0 1-.73-.73V5.73a.73.73 0 0 1 .73-.73h1.54a.73.73 0 0 1 .73.73v1.54a.73.73 0 0 1-.73.73h-1.54zM295.73 8a.73.73 0 0 1-.73-.73V5.73a.73.73 0 0 1 .73-.73h1.54a.73.73 0 0 1 .73.73v1.54a.73.73 0 0 1-.73.73h-1.54zM299.73 8a.73.73 0 0 1-.73-.73V5.73a.73.73 0 0 1 .73-.73h1.54a.73.73 0 0 1 .73.73v1.54a.73.73 0 0 1-.73.73h-1.54z" fill-opacity=".2" fill="#289BE3" mask="url(#j)"/>
        <path d="M272.06 16c-.585 0-1.06-.49-1.06-1.095V3.095c0-.605.475-1.095 1.06-1.095h9.879c.586 0 1.061.49 1.061 1.095v11.81c0 .605-.475 1.095-1.061 1.095h-9.879z" fill="#E7E7E7" mask="url(#j)"/>
        <path d="M273.626 10c-.346 0-.626-.231-.626-.517V5.517c0-.286.28-.517.626-.517h1.75c.345 0 .624.231.624.517v3.966c0 .286-.28.517-.625.517h-1.75zM277.625 10c-.346 0-.625-.231-.625-.517V5.517c0-.286.28-.517.625-.517h1.75c.345 0 .625.231.625.517v3.966c0 .286-.28.517-.626.517h-1.75z" fill-opacity=".2" fill="#289BE3" mask="url(#j)"/>
        <path fill="#FF99A0" mask="url(#j)" d="M249 14h56v-2h-56z"/>
        <path d="M244 18h-59V1.468c0-.81.652-1.468 1.457-1.468h56.085c.805 0 1.458.658 1.458 1.468V18z" fill="#FFF" mask="url(#j)"/>
        <path d="M189.73 8a.73.73 0 0 1-.73-.73V5.73a.73.73 0 0 1 .73-.73h1.54a.73.73 0 0 1 .73.73v1.54a.73.73 0 0 1-.73.73h-1.54zM193.73 8a.73.73 0 0 1-.73-.73V5.73a.73.73 0 0 1 .73-.73h1.54a.73.73 0 0 1 .73.73v1.54a.73.73 0 0 1-.73.73h-1.54zM198.73 8a.73.73 0 0 1-.73-.73V5.73a.73.73 0 0 1 .73-.73h1.54a.73.73 0 0 1 .73.73v1.54a.73.73 0 0 1-.73.73h-1.54zM202.73 8a.73.73 0 0 1-.73-.73V5.73a.73.73 0 0 1 .73-.73h1.54a.73.73 0 0 1 .73.73v1.54a.73.73 0 0 1-.73.73h-1.54zM224.73 8a.73.73 0 0 1-.73-.73V5.73a.73.73 0 0 1 .73-.73h1.54a.73.73 0 0 1 .73.73v1.54a.73.73 0 0 1-.73.73h-1.54z" fill-opacity=".2" fill="#289BE3" mask="url(#j)"/>
        <path d="M230.27 8h-1.54a.73.73 0 0 1-.73-.73V5.73a.73.73 0 0 1 .73-.73h1.54a.73.73 0 0 1 .73.73v1.54a.73.73 0 0 1-.73.73M235.27 8h-1.54a.729.729 0 0 1-.73-.73V5.73a.73.73 0 0 1 .73-.73h1.54a.73.73 0 0 1 .73.73v1.54a.73.73 0 0 1-.73.73M240.27 8h-1.54a.73.73 0 0 1-.73-.73V5.73a.73.73 0 0 1 .73-.73h1.54a.73.73 0 0 1 .73.73v1.54a.73.73 0 0 1-.73.73" fill="#289BE3" opacity=".2" mask="url(#j)"/>
        <path d="M219.939 16h-9.879c-.586 0-1.06-.49-1.06-1.095V3.095c0-.605.474-1.095 1.06-1.095h9.879c.585 0 1.061.49 1.061 1.095v11.81c0 .605-.476 1.095-1.061 1.095" fill="#E7E7E7" mask="url(#j)"/>
        <path d="M213.374 10h-1.75c-.345 0-.624-.231-.624-.517V5.517c0-.286.28-.517.625-.517h1.75c.345 0 .625.231.625.517v3.966c0 .286-.28.517-.626.517M218.375 10h-1.75c-.345 0-.625-.231-.625-.517V5.517c0-.286.28-.517.625-.517h1.75c.345 0 .625.231.625.517v3.966c0 .286-.28.517-.625.517" fill="#289BE3" opacity=".2" mask="url(#j)"/>
        <path fill="#FF99A0" mask="url(#j)" d="M187 14h56v-2h-56z"/>
        <path d="M182 18h-59V1.468c0-.81.653-1.468 1.458-1.468h56.084c.806 0 1.458.658 1.458 1.468V18z" fill="#FFF" mask="url(#j)"/>
        <path d="M129.27 8h-1.54a.73.73 0 0 1-.73-.73V5.73a.73.73 0 0 1 .73-.73h1.54a.73.73 0 0 1 .73.73v1.54a.73.73 0 0 1-.73.73M133.27 8h-1.54a.73.73 0 0 1-.73-.73V5.73a.73.73 0 0 1 .73-.73h1.54a.73.73 0 0 1 .73.73v1.54a.73.73 0 0 1-.73.73" fill-opacity=".2" fill="#289BE3" mask="url(#j)"/>
        <path d="M138.27 8h-1.54a.73.73 0 0 1-.73-.73V5.73a.73.73 0 0 1 .73-.73h1.54c.402 0 .73.327.73.73v1.54a.73.73 0 0 1-.73.73M143.27 8h-1.54a.73.73 0 0 1-.73-.73V5.73a.73.73 0 0 1 .73-.73h1.54a.73.73 0 0 1 .73.73v1.54a.73.73 0 0 1-.73.73M164.27 8h-1.54a.73.73 0 0 1-.73-.73V5.73a.73.73 0 0 1 .73-.73h1.54a.73.73 0 0 1 .73.73v1.54a.73.73 0 0 1-.73.73M169.27 8h-1.54a.73.73 0 0 1-.73-.73V5.73a.73.73 0 0 1 .73-.73h1.54a.73.73 0 0 1 .73.73v1.54a.73.73 0 0 1-.73.73M173.27 8h-1.54a.73.73 0 0 1-.73-.73V5.73a.73.73 0 0 1 .73-.73h1.54a.73.73 0 0 1 .73.73v1.54a.73.73 0 0 1-.73.73M178.27 8h-1.54a.73.73 0 0 1-.73-.73V5.73a.73.73 0 0 1 .73-.73h1.54a.73.73 0 0 1 .73.73v1.54a.73.73 0 0 1-.73.73" fill="#289BE3" opacity=".2" mask="url(#j)"/>
        <path d="M157.94 16h-9.879c-.586 0-1.061-.49-1.061-1.095V3.095c0-.605.475-1.095 1.061-1.095h9.879c.585 0 1.06.49 1.06 1.095v11.81c0 .605-.475 1.095-1.06 1.095" fill="#E7E7E7" mask="url(#j)"/>
        <path d="M151.375 10h-1.75c-.345 0-.625-.231-.625-.517V5.517c0-.286.28-.517.625-.517h1.75c.345 0 .625.231.625.517v3.966c0 .286-.28.517-.625.517M156.374 10h-1.748c-.347 0-.626-.231-.626-.517V5.517c0-.286.28-.517.626-.517h1.748c.347 0 .626.231.626.517v3.966c0 .286-.28.517-.626.517" fill="#289BE3" opacity=".2" mask="url(#j)"/>
        <path fill="#FF99A0" mask="url(#j)" d="M125 14h56v-2h-56z"/>
        <path d="M120 18H61V1.468C61 .658 61.652 0 62.458 0h56.084c.805 0 1.458.658 1.458 1.468V18z" fill="#FFF" mask="url(#j)"/>
        <path d="M67.27 8h-1.54a.73.73 0 0 1-.73-.73V5.73a.73.73 0 0 1 .73-.73h1.54a.73.73 0 0 1 .73.73v1.54a.73.73 0 0 1-.73.73M72.27 8h-1.54a.73.73 0 0 1-.73-.73V5.73a.73.73 0 0 1 .73-.73h1.54a.73.73 0 0 1 .73.73v1.54a.73.73 0 0 1-.73.73M76.27 8h-1.54a.73.73 0 0 1-.73-.73V5.73a.73.73 0 0 1 .73-.73h1.54a.73.73 0 0 1 .73.73v1.54a.73.73 0 0 1-.73.73M81.27 8h-1.54a.73.73 0 0 1-.73-.73V5.73a.73.73 0 0 1 .73-.73h1.54a.73.73 0 0 1 .73.73v1.54a.73.73 0 0 1-.73.73M102.27 8h-1.54a.73.73 0 0 1-.73-.73V5.73a.73.73 0 0 1 .73-.73h1.54a.73.73 0 0 1 .73.73v1.54a.73.73 0 0 1-.73.73M107.27 8h-1.54a.73.73 0 0 1-.73-.73V5.73a.73.73 0 0 1 .73-.73h1.54a.73.73 0 0 1 .73.73v1.54a.73.73 0 0 1-.73.73M111.27 8h-1.54a.73.73 0 0 1-.73-.73V5.73a.73.73 0 0 1 .73-.73h1.54a.73.73 0 0 1 .73.73v1.54a.73.73 0 0 1-.73.73" fill="#289BE3" mask="url(#j)"/>
        <path d="M116.27 8h-1.54a.73.73 0 0 1-.73-.73V5.73a.73.73 0 0 1 .73-.73h1.54a.73.73 0 0 1 .73.73v1.54a.73.73 0 0 1-.73.73" fill="#289BE3" opacity=".2" mask="url(#j)"/>
        <path d="M95.939 16H86.06c-.586 0-1.06-.49-1.06-1.095V3.095C85 2.49 85.474 2 86.06 2h9.879C96.525 2 97 2.49 97 3.095v11.81C97 15.51 96.525 16 95.939 16" fill="#E7E7E7" mask="url(#j)"/>
        <path d="M90.374 10h-1.748c-.347 0-.626-.231-.626-.517V5.517c0-.286.28-.517.626-.517h1.748c.347 0 .626.231.626.517v3.966c0 .286-.28.517-.626.517M94.374 10h-1.75C92.28 10 92 9.769 92 9.483V5.517c0-.286.28-.517.625-.517h1.75c.345 0 .625.231.625.517v3.966c0 .286-.28.517-.626.517" fill="#289BE3" mask="url(#j)"/>
        <path fill="#FFEB8B" mask="url(#j)" d="M63 14h56v-2H63z"/>
        <path d="M6.27 8H4.73A.73.73 0 0 1 4 7.27V5.73A.73.73 0 0 1 4.73 5h1.54a.73.73 0 0 1 .73.73v1.54a.73.73 0 0 1-.73.73M10.27 8H8.73A.73.73 0 0 1 8 7.27V5.73A.73.73 0 0 1 8.73 5h1.54a.73.73 0 0 1 .73.73v1.54a.73.73 0 0 1-.73.73M15.27 8h-1.54a.73.73 0 0 1-.73-.73V5.73a.73.73 0 0 1 .73-.73h1.54a.73.73 0 0 1 .73.73v1.54a.73.73 0 0 1-.73.73M19.27 8h-1.54a.73.73 0 0 1-.73-.73V5.73a.73.73 0 0 1 .73-.73h1.54a.73.73 0 0 1 .73.73v1.54a.73.73 0 0 1-.73.73M41.27 8h-1.54a.73.73 0 0 1-.73-.73V5.73a.73.73 0 0 1 .73-.73h1.54a.73.73 0 0 1 .73.73v1.54a.73.73 0 0 1-.73.73M45.27 8h-1.54a.73.73 0 0 1-.73-.73V5.73a.73.73 0 0 1 .73-.73h1.54a.73.73 0 0 1 .73.73v1.54a.73.73 0 0 1-.73.73M50.27 8h-1.54a.73.73 0 0 1-.73-.73V5.73a.73.73 0 0 1 .73-.73h1.54a.73.73 0 0 1 .73.73v1.54a.73.73 0 0 1-.73.73M54.27 8h-1.54a.73.73 0 0 1-.73-.73V5.73a.73.73 0 0 1 .73-.73h1.54a.73.73 0 0 1 .73.73v1.54a.73.73 0 0 1-.73.73M28.375 10h-1.75C26.28 10 26 9.769 26 9.483V5.517c0-.286.28-.517.626-.517h1.75c.345 0 .624.231.624.517v3.966c0 .286-.28.517-.625.517" fill="#289BE3" mask="url(#j)"/>
        <path fill="#FFEB8B" mask="url(#j)" d="M2 14h56v-2H2z"/>
        <path d="M397.27 8h-1.54a.73.73 0 0 1-.73-.73V5.73a.73.73 0 0 1 .73-.73h1.54a.73.73 0 0 1 .73.73v1.54a.73.73 0 0 1-.73.73M405.633 5h-5.312c-.73 0-1.321.65-1.321 1.455v.09c0 .803.592 1.455 1.321 1.455H408a19.54 19.54 0 0 0-2.367-3" fill="#289BE3" opacity=".2" mask="url(#j)"/>
      </g>
      <path d="M1976.446 25.75c-17.287-17.375-80.635 26.826-104.008 18.505-23.374-8.32-122.902-42.19-169.528-12.824-46.626 29.366 15.862 94.982 15.862 94.982h378l-11.205-39.922c-27.756-3.18-91.834-43.366-109.12-60.741z" fill="url(#k)" fill-rule="nonzero" transform="rotate(-5 2381.647 16433.023)"/>
      <path d="M2786 48.336c-12.773-6.48-27.907-8.405-42.434-8.334-35.486.172-70.211 10.623-105.667 12.092-30.123 1.248-60.094-4.005-90.18-5.942-25.738-1.658-51.59-.878-77.247 1.604-23.379 2.262-46.601 5.936-69.641 10.45-20.012 3.92-39.879 9.933-60.202 11.905-35.872 3.481-52.028 30.093-46.602 62.889H2786V48.336z" fill="url(#l)" fill-rule="nonzero" transform="translate(-1424 105)"/>
      <path d="M2391 94.482c-36.145-10.831-335.093-48.904-478 3.63V154h478V94.482z" fill="url(#m)" fill-rule="nonzero" transform="translate(-1424 105)"/>
      <g fill-rule="nonzero">
        <path d="M734.932 68.921h-32.864s4.625 7.227-20.721 0C656 61.694 628.228 13.362 601.5 17.694c-26.728 4.331-92.75 51.221-148.218 31.863-55.47-19.358-128.856-8.664-167.128 0C247.883 58.222 122.145-31.563 0 11.986v343.401h1437V2.834s-48.805 21.695-101.128 7.204c-52.323-14.492-72.328-5.018-91.579 3.088-19.25 8.107-61.539-.787-75.556-4.893-14.018-4.106-71.478-16.798-161 41.324-29.037 18.853-91.88 11.78-114.149 8.244-51.917-8.244-118.38 11.12-158.656 11.12z" fill="url(#n)" transform="translate(5 137.806)"/>
        <path d="M1361.116 25.795c-2.556 6.63-53.145.765-83.295 33.151-30.149 32.387 33.216 40.547 82.017 4.59 28.2-20.777 54.692-42.234 77.162-51.483V4.214s-48.595 21.538-100.693 7.151c11.522 4.23 27.364 7.8 24.809 14.43z" fill="url(#o)" transform="translate(5 137.806)"/>
        <path d="M210.013 62.656c-14.384 2.75-44.865 7.906 11.644 32.655 56.508 24.75 135.62 48.842 149.66 54.327 14.042 5.484-46.233-24.421-66.097-36.796-19.863-12.375-71.984-66.206 86.78-74.009-40.356-1.614-80.558 4.959-105.664 10.658C256.76 56.205 175 4.027 83 0c21.372 1.849 77.553 14.17 115.026 38.594 26.37 17.187 26.37 21.312 11.987 24.062z" fill="url(#p)" transform="translate(5 137.806)"/>
      </g>
      <g fill-rule="nonzero">
        <path d="M734.932 68.921h-32.864s4.625 7.227-20.721 0C656 61.694 628.228 13.362 601.5 17.694c-26.728 4.331-92.75 51.221-148.218 31.863-55.47-19.358-128.856-8.664-167.128 0C247.883 58.222 122.145-31.563 0 11.986v343.401h1437V2.834s-48.805 21.695-101.128 7.204c-52.323-14.492-72.328-5.018-91.579 3.088-19.25 8.107-61.539-.787-75.556-4.893-14.018-4.106-71.478-16.798-161 41.324-29.037 18.853-91.88 11.78-114.149 8.244-51.917-8.244-118.38 11.12-158.656 11.12z" fill="url(#n)" transform="translate(1440 129.806)"/>
        <path d="M210.013 62.656c-14.384 2.75-44.865 7.906 11.644 32.655 56.508 24.75 135.62 48.842 149.66 54.327 14.042 5.484-46.233-24.421-66.097-36.796-19.863-12.375-71.984-66.206 86.78-74.009-40.356-1.614-80.558 4.959-105.664 10.658C256.76 56.205 175 4.027 83 0c21.372 1.849 77.553 14.17 115.026 38.594 26.37 17.187 26.37 21.312 11.987 24.062z" fill="url(#p)" transform="translate(1440 129.806)"/>
      </g>
      <g fill-rule="nonzero">
        <path d="M734.932 68.921h-32.864s4.625 7.227-20.721 0C656 61.694 628.228 13.362 601.5 17.694c-26.728 4.331-92.75 51.221-148.218 31.863-55.47-19.358-128.856-8.664-167.128 0C247.883 58.222 122.145-31.563 0 11.986v343.401h1437V2.834s-48.805 21.695-101.128 7.204c-52.323-14.492-72.328-5.018-91.579 3.088-19.25 8.107-61.539-.787-75.556-4.893-14.018-4.106-71.478-16.798-161 41.324-29.037 18.853-91.88 11.78-114.149 8.244-51.917-8.244-118.38 11.12-158.656 11.12z" fill="url(#n)" transform="translate(-1424 144)"/>
        <path d="M1361.116 25.795c-2.556 6.63-53.145.765-83.295 33.151-30.149 32.387 33.216 40.547 82.017 4.59 28.2-20.777 54.692-42.234 77.162-51.483V4.214s-48.595 21.538-100.693 7.151c11.522 4.23 27.364 7.8 24.809 14.43z" fill="url(#o)" transform="translate(-1424 144)"/>
      </g>
      <path d="M2584.845 65.473c14.816 2.048 26.54 7.295 26.154 9.854-.386 2.56-4.38 3.584-17.136 2.944-12.755-.64-23.32 3.199-21.13 7.166 2.19 3.967 38.524 10.682 59.396-4.449 16.03-11.62 35.329-32.775 60.871-40.993-7.296 2.031-13.505 4.73-19.637 7.291-19.331 8.078-61.796-.785-75.872-4.876-4.584-1.332-13.798-3.57-27.239-3.985-5.465.003-26.507.708-26.25 11.564.258 10.877 26.026 13.437 40.843 15.484z" fill="url(#q)" fill-rule="nonzero" transform="translate(-1424 105)"/>
    </g>
  </g>
</svg>
