<?xml version="1.0" encoding="UTF-8"?>
<svg width="15px" height="18px" viewBox="0 0 15 18" version="1.1" xmlns="http://www.w3.org/2000/svg" xmlns:xlink="http://www.w3.org/1999/xlink">
    <!-- Generator: Sketch 56.3 (81716) - https://sketch.com -->
    <title>Combined Shape</title>
    <desc>Created with Sketch.</desc>
    <g id="icons" stroke="none" stroke-width="1" fill="none" fill-rule="evenodd">
        <g transform="translate(-376.000000, -5509.000000)" fill="#EC3F4A" fill-rule="nonzero" id="Maps">
            <g transform="translate(60.000000, 5466.000000)">
                <g id="Marker#1" transform="translate(316.000000, 43.000000)">
                    <path d="M0,7.5 C0,3 3,-8.8817842e-14 7.5,-8.8817842e-14 C12,-8.8817842e-14 15,3.75 15,7.5 C15,9.83256225 12.8236613,13.03566 8.470984,17.1092932 C7.91540183,17.6292577 7.05850544,17.6508331 6.47745546,17.1594925 C2.15915182,13.5078313 0,10.2880005 0,7.5 Z M7.5,9 C8.88071187,9 10,7.88071187 10,6.5 C10,5.11928813 8.88071187,4 7.5,4 C6.11928813,4 5,5.11928813 5,6.5 C5,7.88071187 6.11928813,9 7.5,9 Z" id="Combined-Shape"></path>
                </g>
            </g>
        </g>
    </g>
</svg>