<svg width="357" height="214" xmlns="http://www.w3.org/2000/svg" xmlns:xlink="http://www.w3.org/1999/xlink">
  <defs>
    <path id="a" d="M.127.031h1.159V18.96H.126z"/>
    <path id="c" d="M0 225h261.173V.031H0z"/>
    <path id="e" d="M263 73h131V0H263z"/>
  </defs>
  <g fill="none" fill-rule="evenodd">
    <g opacity=".6">
      <path fill="#FFD100" d="M200 54h15V29h-15z"/>
      <path fill="#FAAE17" d="M202 54h10V32h-10z"/>
      <g transform="translate(11)">
        <path d="M204.231 27.654h-15.208c0-4.8 3.41-8.695 7.612-8.695 4.203 0 7.596 3.895 7.596 8.695" fill="#FFD100"/>
        <path d="M200.429 27.654l1.186-3.503c.232-.684 1.2-.684 1.43 0l1.186 3.503h-3.802zM196.627 27.654l1.185-3.503c.233-.684 1.2-.684 1.432 0l1.184 3.503h-3.8z" fill="#FAAE17"/>
        <path d="M192.824 27.654l1.186-3.503c.233-.684 1.2-.684 1.43 0l1.187 3.503h-3.803zM189.023 27.654l1.184-3.503c.233-.684 1.2-.684 1.432 0l1.185 3.503h-3.801z" fill="#FAAE17"/>
        <g transform="translate(195.92)">
          <mask id="b" fill="#fff">
            <use xlink:href="#a"/>
          </mask>
          <path fill="#FFD100" mask="url(#b)" d="M.163 18.96L.707.03l.542 18.93z"/>
        </g>
        <mask id="d" fill="#fff">
          <use xlink:href="#c"/>
        </mask>
        <path fill="#00636C" mask="url(#d)" d="M189.023 29.828h15.208v-2.174h-15.208z"/>
        <path d="M194.726 13.435a1.9 1.9 0 1 0 3.801 0 1.901 1.901 0 1 0-3.8 0M195.436 8.468a1.191 1.191 0 1 0 2.382 0 1.191 1.191 0 0 0-2.382 0M195.986 4.206a.64.64 0 1 0 0 0" fill="#F05A28" mask="url(#d)"/>
        <path fill="#8C3008" mask="url(#d)" d="M250.857 186.603v26.8H108.362v-34.918zM234.568 175.075v10.6l-126.205-7.19v-12.042z"/>
        <path d="M159.68 183.295c-4.106-.335-7.503 2.079-7.503 5.4v24.709h14.712V189.66c0-3.19-3.193-6.036-7.21-6.365" fill="#661C00" mask="url(#d)"/>
        <path fill="#FFD100" mask="url(#d)" d="M108.362 213.404H30.96v-30.14l77.402-4.78z"/>
        <path fill="#FAAE17" mask="url(#d)" d="M40.194 182.694v30.714h13.309v-31.582zM83.92 213.404v-33.41l16.026-.997v34.41zM56.218 176.06v37.348l24.307-.005v-39.247z"/>
        <path d="M214.755 186.01c-3.053-.305-5.577 1.891-5.577 4.911v22.483h10.935v-21.603c0-2.903-2.373-5.493-5.358-5.791M233.445 189.34c-2.31-.268-4.221 1.662-4.221 4.315v19.753h8.276v-18.98c0-2.55-1.796-4.826-4.055-5.088M244.998 190.517c-2.197-.255-4.013 1.581-4.013 4.105v18.785h7.87v-18.05c0-2.426-1.708-4.59-3.857-4.84" fill="#661C00" mask="url(#d)"/>
        <path fill="#FFD100" mask="url(#d)" d="M181.419 200.276h30.417V71.76H181.42z"/>
        <path fill="#00636C" mask="url(#d)" d="M181.418 71.76h30.417V54.37h-30.417z"/>
        <path fill="#F58A1E" mask="url(#d)" d="M186.665 181.887h19.923v-86.76h-19.923zM196.627 79.368s-9.958 5.253-9.958 11.411v4.347h19.916V90.78c0-6.158-9.958-11.41-9.958-11.41"/>
        <path d="M186.669 84.168v-6.34h6.97c-2.866 1.933-5.19 3.442-6.97 6.34M206.585 84.168v-6.34h-6.97c2.866 1.933 5.19 3.442 6.97 6.34M196.627 83.806s-6.296 3.774-6.296 8.197v3.124h12.592v-3.124c0-4.423-6.296-8.197-6.296-8.197" fill="#00636C" mask="url(#d)"/>
        <path d="M201.423 95.127h-9.592a4.804 4.804 0 0 1 4.802-4.804c2.65 0 4.79 2.151 4.79 4.804M190.331 181.887H203.1v-86.76H190.33z" fill="#FAAE17" mask="url(#d)"/>
        <path d="M208.033 54.371l1.186-3.502c.232-.684 1.2-.684 1.43 0l1.187 3.502h-3.803zM204.231 54.371l1.185-3.502c.233-.684 1.2-.684 1.432 0l1.185 3.502h-3.802z" fill="#FFD100" mask="url(#d)"/>
        <path d="M200.429 54.371l1.186-3.502c.232-.684 1.2-.684 1.43 0l1.186 3.502h-3.802zM196.627 54.371l1.185-3.502c.233-.684 1.2-.684 1.432 0l1.184 3.502h-3.8z" fill="#FFD100" mask="url(#d)"/>
        <path d="M192.824 54.371l1.186-3.502c.233-.684 1.2-.684 1.43 0l1.187 3.502h-3.803zM189.023 54.371l1.184-3.502c.233-.684 1.2-.684 1.432 0l1.185 3.502h-3.801zM185.22 54.371l1.186-3.502c.233-.684 1.2-.684 1.43 0l1.186 3.502h-3.802zM181.418 54.371l1.186-3.502c.232-.684 1.199-.684 1.43 0l1.185 3.502h-3.8z" fill="#FFD100" mask="url(#d)"/>
        <path d="M196.808 170.727h-.32a3.711 3.711 0 0 0-3.71 3.712v7.448h7.74v-7.448a3.71 3.71 0 0 0-3.71-3.712" fill="#F58A1E" mask="url(#d)"/>
        <path d="M196.754 175.075h-.118c-.755 0-1.367.612-1.367 1.367v5.444h2.852v-5.444c0-.755-.613-1.367-1.367-1.367M204.881 177.656h-.077a.912.912 0 0 0-.913.912v3.318h1.902v-3.318a.91.91 0 0 0-.912-.912M188.383 177.656h-.078a.912.912 0 0 0-.912.912v3.318h1.901v-3.318a.912.912 0 0 0-.911-.912" fill="#8C3008" mask="url(#d)"/>
        <path fill="#FAAE17" mask="url(#d)" d="M176.44 213.408h70.068v-13.132H176.44z"/>
        <path fill="#FFD100" mask="url(#d)" d="M142.4 213.408h34.038v-13.132H142.4zM246.508 213.408h14.665V197.13h-14.665z"/>
        <path fill="#FAAE17" mask="url(#d)" d="M238.723 200.276h7.785v-3.145h-7.785z"/>
        <path d="M195.56 202.358h-.22a2.561 2.561 0 0 0-2.562 2.562v8.488h5.342v-8.488a2.56 2.56 0 0 0-2.56-2.562M183.839 202.358h-.222a2.561 2.561 0 0 0-2.56 2.562v8.488h5.342v-8.488a2.561 2.561 0 0 0-2.56-2.562" fill="#8C3008" mask="url(#d)"/>
        <path d="M170.89 202.358h-.22a2.561 2.561 0 0 0-2.56 2.562v8.488h5.341v-8.488a2.56 2.56 0 0 0-2.56-2.562M162.653 202.358h-.221a2.561 2.561 0 0 0-2.561 2.562v8.488h5.343v-8.488a2.561 2.561 0 0 0-2.56-2.562M155.32 202.358h-.221a2.561 2.561 0 0 0-2.56 2.562v8.488h5.342v-8.488a2.561 2.561 0 0 0-2.56-2.562M147.988 202.358h-.222a2.561 2.561 0 0 0-2.56 2.562v8.488h5.343v-8.488a2.561 2.561 0 0 0-2.561-2.562" fill="#BC461D" mask="url(#d)"/>
        <path d="M202.85 202.358h-.221a2.562 2.562 0 0 0-2.562 2.562v8.488h5.343v-8.488a2.561 2.561 0 0 0-2.56-2.562M210.139 202.358h-.222a2.561 2.561 0 0 0-2.56 2.562v8.488h5.343v-8.488a2.561 2.561 0 0 0-2.561-2.562M217.428 202.358h-.22a2.561 2.561 0 0 0-2.562 2.562v8.488h5.342v-8.488a2.56 2.56 0 0 0-2.56-2.562M224.717 202.358h-.221a2.561 2.561 0 0 0-2.561 2.562v8.488h5.343v-8.488a2.561 2.561 0 0 0-2.56-2.562M232.007 202.358h-.222a2.561 2.561 0 0 0-2.56 2.562v8.488h5.343v-8.488a2.561 2.561 0 0 0-2.561-2.562M239.295 202.358h-.22a2.561 2.561 0 0 0-2.56 2.562v8.488h5.341v-8.488a2.56 2.56 0 0 0-2.56-2.562M256.26 202.358h-.22a2.561 2.561 0 0 0-2.56 2.562v8.488h5.341v-8.488a2.561 2.561 0 0 0-2.56-2.562" fill="#8C3008" mask="url(#d)"/>
        <path fill="#FAAE17" mask="url(#d)" d="M163.9 200.276h27.974v-4.331h-27.973z"/>
        <path fill="#FFD100" mask="url(#d)" d="M163.902 200.276h12.538v-4.331h-12.538z"/>
        <path d="M119.204 184.826c-3.184-.318-5.818 1.974-5.818 5.125v23.453h11.406v-22.537c0-3.028-2.473-5.73-5.588-6.041" fill="#661C00" mask="url(#d)"/>
        <path d="M91.819 184.826c3.183-.318 5.817 1.974 5.817 5.125v23.453H86.23v-22.537c0-3.028 2.475-5.73 5.589-6.041M46.684 189.252c2.691-.269 4.917 1.668 4.917 4.332v19.823h-9.64v-19.05c0-2.558 2.09-4.841 4.723-5.105M66.263 182.23c4.368-.435 7.98 2.709 7.98 7.031v24.143H58.596v-22.885c0-4.155 3.395-7.861 7.668-8.288" fill="#BC461D" mask="url(#d)"/>
        <path d="M136.313 184.826c-3.183-.318-5.817 1.974-5.817 5.125v23.453h11.406v-22.537c0-3.028-2.474-5.73-5.589-6.041M114.337 178.825l7.872.449v-6.297a3.937 3.937 0 1 0-7.872 0v5.848zM161.277 181.513l6.834.435v-6.111c0-2.01-1.39-3.676-3.183-3.814-1.974-.152-3.651 1.598-3.651 3.814v5.676zM146.526 180.66l7.874.448v-6.296a3.938 3.938 0 0 0-7.874 0v5.847zM214.646 184.602l6.378.387v-5.424c0-1.782-1.297-3.26-2.97-3.384-1.843-.134-3.408 1.42-3.408 3.384v5.037zM226.362 185.208l6.379.386v-5.423c0-1.783-1.298-3.262-2.97-3.384-1.843-.135-3.409 1.418-3.409 3.384v5.037zM130.496 179.744l7.873.448v-6.296a3.937 3.937 0 1 0-7.873 0v5.848z" fill="#661C00" mask="url(#d)"/>
        <path fill="#FFD100" mask="url(#d)" d="M108.362 166.443l-60.836 5.575v10.172l60.836-3.705z"/>
        <path stroke="#652C90" mask="url(#d)" d="M80.525 174.156l3.395.16v5.678l-3.59.2z"/>
        <path d="M95.41 179.274v-5.587a4.16 4.16 0 1 0-8.323 0v6.093l8.324-.506zM80.068 180.238v-5.28a3.934 3.934 0 0 0-4.364-3.912 3.935 3.935 0 0 0-3.501 3.912v5.76l7.865-.48zM66.035 181.063v-5.28a3.934 3.934 0 0 0-4.365-3.912 3.935 3.935 0 0 0-3.501 3.912v5.76l7.866-.48z" fill="#BC461D" mask="url(#d)"/>
        <path fill="#602D11" mask="url(#d)" d="M108.362 162.509v-8.967l-38.022 4.484-14.121 9.373zM59.206 167.119v3.903l49.156-4.58v-3.933z"/>
        <path fill="#491D00" mask="url(#d)" d="M108.362 153.542l73.057 6.114v8.422l-73.057-5.57zM108.362 162.509v3.934l73.057 4.997v-3.362z"/>
        <path fill="#602D11" mask="url(#d)" d="M136.199 155.872v-8.85l-23.763 2.716-4.074 3.804z"/>
        <path fill="#491D00" mask="url(#d)" d="M136.199 147.022l45.22 5.026v7.607l-45.22-3.783zM211.836 162.509l17.715 12.223-17.715-1.212z"/>
      </g>
    </g>
    <g opacity=".7" transform="translate(0 145)">
      <path fill="#004E4B" d="M15 47.05V68h-2l1-21z"/>
      <path fill="#003C3D" d="M15 47.05V68h2l-1-21z"/>
      <path d="M15.279 45S13.844 37.21 7 33.894c0 0 2.252-1.748 4.762-.356C14.27 34.93 17.447 39.546 15.279 45" fill="#004E4B"/>
      <path d="M14.721 45S16.156 37.21 23 33.894c0 0-2.253-1.748-4.762-.356C15.73 34.93 12.553 39.546 14.721 45" fill="#004E4B"/>
      <path d="M15.526 48S12.47 40.218 3 36.883c0 0 2.687-1.737 6.185-.339 3.498 1.399 8.358 6.019 6.341 11.456" fill="#003C3D"/>
      <path d="M14.474 48S17.53 40.218 27 36.883c0 0-2.687-1.737-6.185-.339-3.498 1.399-8.358 6.019-6.341 11.456" fill="#003C3D"/>
      <path d="M15 48s-5.637-6.52-15-6.618c0 0 1.61-2.569 5.134-2.371C8.658 39.208 14.597 42.073 15 48M15 48s5.638-6.52 15-6.618c0 0-1.61-2.569-5.134-2.371-3.524.197-9.463 3.062-9.866 8.989" fill="#004E4B"/>
      <path d="M15 30s-2.142 1.7-1.992 4.512C13.158 37.323 15 41 15 41s1.843-3.677 1.992-6.488C17.142 31.7 15 30 15 30" fill="#003C3D"/>
      <path fill="#00615E" d="M24 41.064V68h-2l1-27z"/>
      <path fill="#004E50" d="M24 41.064V68h2l-1-27z"/>
      <path d="M24.038 39S22.125 29.262 13 25.118c0 0 3.004-2.185 6.35-.446 3.345 1.74 7.58 7.51 4.688 14.328" fill="#00615E"/>
      <path d="M23.962 39S25.875 29.262 35 25.118c0 0-3.003-2.185-6.349-.446-3.345 1.74-7.58 7.51-4.689 14.328" fill="#00615E"/>
      <path d="M23.417 43S19.654 32.624 8 28.177c0 0 3.307-2.316 7.612-.451C19.917 29.59 25.9 35.75 23.417 43" fill="#004E50"/>
      <path d="M23.583 43S27.346 32.624 39 28.177c0 0-3.307-2.316-7.612-.451C27.083 29.59 21.1 35.75 23.583 43" fill="#004E50"/>
      <path d="M24 43s-7.517-8.693-20-8.825c0 0 2.148-3.424 6.845-3.16C15.544 31.277 23.463 35.096 24 43M24 43s7.517-8.693 20-8.825c0 0-2.148-3.424-6.845-3.16C32.456 31.277 24.537 35.096 24 43" fill="#00615E"/>
      <path d="M23.5 19s-2.678 2.318-2.49 6.152C21.196 28.987 23.5 34 23.5 34s2.303-5.013 2.49-8.848C26.179 21.318 23.5 19 23.5 19" fill="#004E50"/>
      <mask id="f" fill="#fff">
        <use xlink:href="#e"/>
      </mask>
      <path fill="#FEC732" mask="url(#f)" d="M302 47h49V17h-49z"/>
      <path fill="#F89E1B" mask="url(#f)" d="M305 47h43V20h-43z"/>
      <path fill="#FEC732" mask="url(#f)" d="M307 68h50V47h-50z"/>
      <path fill="#F37720" mask="url(#f)" d="M286 68h21V47h-21zM290 47h12V17h-12z"/>
      <path fill="#BC461D" mask="url(#f)" d="M302 17h49v-2h-49z"/>
      <path fill="#8C3008" mask="url(#f)" d="M290 17h12v-2h-12z"/>
      <path fill="#FEC732" mask="url(#f)" d="M307 47h50v-4h-50z"/>
      <path fill="#F89E1B" mask="url(#f)" d="M302 47h4v-4h-4z"/>
      <path fill="#F58A1E" mask="url(#f)" d="M307 47h2v-4h-2zM313 47h2v-4h-2zM320 47h2v-4h-2zM327 47h2v-4h-2zM334 47h2v-4h-2zM341 47h2v-4h-2zM348 47h2v-4h-2zM355 47h2v-4h-2z"/>
      <path fill="#F16322" mask="url(#f)" d="M286 47h4V23h-4z"/>
      <path fill="#F58A1E" mask="url(#f)" d="M314 43h26V23h-26z"/>
      <path fill="#F37720" mask="url(#f)" d="M317 42h21V25h-21z"/>
      <path d="M338 42h-21v-4.702C317 31.61 321.701 27 327.5 27S338 31.61 338 37.298V42z" fill="#F89E1B" mask="url(#f)"/>
      <path d="M336 43h-17v-4.469c0-4.712 3.805-8.531 8.5-8.531s8.5 3.82 8.5 8.531V43z" fill="#BC461D" mask="url(#f)"/>
      <path fill="#8C3008" mask="url(#f)" d="M322 43h6v-5h-6z"/>
      <path fill="#F89E1B" mask="url(#f)" d="M308 68h8V51h-8zM318 68h7V51h-7zM338 68h7V51h-7zM327 68h9V51h-9zM347 68h8V51h-8z"/>
      <path d="M325 68h-7V56.228c0-1.782 1.567-3.228 3.5-3.228s3.5 1.446 3.5 3.228V68zM345 68h-7V56.228c0-1.782 1.567-3.228 3.5-3.228s3.5 1.446 3.5 3.228V68zM336 68h-9V56.501a4.5 4.5 0 1 1 9 0V68zM295 45h2v-6h-2zM295 61h2v-6h-2z" fill="#8C3008" mask="url(#f)"/>
      <path fill="#00636C" mask="url(#f)" d="M320.446 0L302 15h49z"/>
      <path fill="#004148" mask="url(#f)" d="M291 15l30-15-18.339 15z"/>
    </g>
  </g>
</svg>
