<!--
 * Train - v1.0
 * Copyright 2018 train.ma | @Train
 -->
<svg xmlns="http://www.w3.org/2000/svg" style="display: none;">

    <symbol id="hamburger" viewBox="0 0 16 13">
        <g transform="matrix(-1 0 0 1 16 0)" fill="#36506F" fill-rule="evenodd">
          <rect width="16" height="3" rx="1.5"/>
          <path d="M1.5 10h13a1.5 1.5 0 0 1 0 3h-13a1.5 1.5 0 0 1 0-3zm0-5h7a1.5 1.5 0 0 1 0 3h-7a1.5 1.5 0 0 1 0-3z" opacity=".3"/>
        </g>
    </symbol>

    <symbol id="logo" viewBox="0 0 99 31">
        <g fill="none" fill-rule="evenodd">
          <path d="M11.278 19.56c-.224 0-.404-.052-.54-.156a1.77 1.77 0 0 1-.372-.396l-.816-1.056c-.592.192-1.272.288-2.04.288-2.272 0-4.064-.552-5.376-1.656C.822 15.48.126 13.856.046 11.712a63.816 63.816 0 0 1-.024-2.064c0-.928.008-1.624.024-2.088.08-2.112.784-3.74 2.112-4.884C3.486 1.532 5.27.96 7.51.96s4.024.572 5.352 1.716c1.328 1.144 2.032 2.772 2.112 4.884.032.928.048 1.624.048 2.088 0 .48-.016 1.168-.048 2.064-.096 1.952-.68 3.48-1.752 4.584l1.776 2.52a.566.566 0 0 1 .072.24v.072a.398.398 0 0 1-.144.3.482.482 0 0 1-.336.132h-3.312zM7.51 14.64c.832 0 1.496-.252 1.992-.756s.76-1.276.792-2.316c.032-.928.048-1.592.048-1.992 0-.4-.016-1.048-.048-1.944-.032-1.04-.296-1.812-.792-2.316-.496-.504-1.16-.756-1.992-.756-.832 0-1.496.252-1.992.756s-.76 1.276-.792 2.316a58.75 58.75 0 0 0-.024 1.944c0 .864.008 1.528.024 1.992.032 1.04.296 1.812.792 2.316.496.504 1.16.756 1.992.756zM18.07 3.792a.564.564 0 0 1-.432-.18.626.626 0 0 1-.168-.444V.936c0-.176.06-.324.18-.444s.26-.18.42-.18h3c.176 0 .324.06.444.18s.18.268.18.444v2.232c0 .176-.06.324-.18.444a.603.603 0 0 1-.444.18h-3zm0 14.208c-.16 0-.3-.06-.42-.18a.576.576 0 0 1-.18-.42V6.12a.596.596 0 0 1 .6-.6h3c.176 0 .324.056.444.168.12.112.18.256.18.432V17.4c0 .176-.06.32-.18.432a.626.626 0 0 1-.444.168h-3zm12.912 0c-3.392 0-5.088-1.592-5.088-4.776v-4.44h-1.896c-.16 0-.3-.06-.42-.18a.576.576 0 0 1-.18-.42V6.12a.596.596 0 0 1 .6-.6h1.896V1.56a.596.596 0 0 1 .6-.6h2.952c.176 0 .32.056.432.168a.585.585 0 0 1 .168.432v3.96h3c.176 0 .324.056.444.168.12.112.18.256.18.432v2.064c0 .176-.06.32-.18.432a.626.626 0 0 1-.444.168h-3v4.08c0 .56.104.984.312 1.272.208.288.544.432 1.008.432h1.896c.176 0 .32.06.432.18.112.12.168.268.168.444V17.4a.596.596 0 0 1-.6.6h-2.28zm8.592.24c-.848 0-1.62-.164-2.316-.492-.696-.328-1.24-.78-1.632-1.356a3.3 3.3 0 0 1-.588-1.896c0-1.088.452-1.972 1.356-2.652.904-.68 2.148-1.148 3.732-1.404l2.976-.456v-.288c0-.592-.12-1.024-.36-1.296s-.648-.408-1.224-.408c-.32 0-.588.056-.804.168-.216.112-.46.28-.732.504a2.91 2.91 0 0 1-.552.384c-.064.112-.144.168-.24.168h-2.784a.537.537 0 0 1-.396-.156.434.434 0 0 1-.132-.372c.016-.432.232-.916.648-1.452.416-.536 1.048-.996 1.896-1.38.848-.384 1.896-.576 3.144-.576 1.984 0 3.456.436 4.416 1.308.96.872 1.44 2.052 1.44 3.54V17.4a.596.596 0 0 1-.6.6H43.87c-.16 0-.3-.06-.42-.18a.576.576 0 0 1-.18-.42v-.84c-.352.496-.84.9-1.464 1.212-.624.312-1.368.468-2.232.468zm1.2-2.832c.704 0 1.276-.232 1.716-.696.44-.464.66-1.136.66-2.016v-.288l-1.992.336c-1.344.256-2.016.736-2.016 1.44 0 .368.156.664.468.888.312.224.7.336 1.164.336zM50.638 18c-.16 0-.3-.06-.42-.18a.576.576 0 0 1-.18-.42V6.144c0-.176.056-.324.168-.444a.564.564 0 0 1 .432-.18h2.928c.176 0 .324.06.444.18s.18.268.18.444v.912a4.589 4.589 0 0 1 1.572-1.14c.6-.264 1.268-.396 2.004-.396h1.08c.176 0 .32.056.432.168a.585.585 0 0 1 .168.432v2.616a.596.596 0 0 1-.6.6h-2.424c-.64 0-1.132.176-1.476.528-.344.352-.516.848-.516 1.488V17.4c0 .176-.06.32-.18.432a.626.626 0 0 1-.444.168h-3.168zM61.702 3.792a.564.564 0 0 1-.432-.18.626.626 0 0 1-.168-.444V.936c0-.176.06-.324.18-.444s.26-.18.42-.18h3c.176 0 .324.06.444.18s.18.268.18.444v2.232c0 .176-.06.324-.18.444a.603.603 0 0 1-.444.18h-3zm0 14.208c-.16 0-.3-.06-.42-.18a.576.576 0 0 1-.18-.42V6.12a.596.596 0 0 1 .6-.6h3c.176 0 .324.056.444.168.12.112.18.256.18.432V17.4c0 .176-.06.32-.18.432a.626.626 0 0 1-.444.168h-3zm6.396 0a.47.47 0 0 1-.333-.126.423.423 0 0 1-.135-.324v-2.376c0-.132.045-.243.135-.333a.452.452 0 0 1 .333-.135h2.376c.132 0 .24.045.324.135a.47.47 0 0 1 .126.333v2.376a.447.447 0 0 1-.45.45h-2.376zm5.238 0a.432.432 0 0 1-.315-.135.432.432 0 0 1-.135-.315V9.09a.447.447 0 0 1 .45-.45h2.088c.132 0 .24.042.324.126a.439.439 0 0 1 .126.324v.612c.288-.348.66-.642 1.116-.882.456-.24.972-.36 1.548-.36 1.32 0 2.226.516 2.718 1.548.288-.456.69-.828 1.206-1.116a3.345 3.345 0 0 1 1.656-.432c.984 0 1.785.333 2.403.999.618.666.927 1.659.927 2.979v5.112a.447.447 0 0 1-.45.45h-2.214a.47.47 0 0 1-.333-.126.423.423 0 0 1-.135-.324v-4.986c0-.552-.117-.957-.351-1.215-.234-.258-.549-.387-.945-.387-.372 0-.675.129-.909.387-.234.258-.351.663-.351 1.215v4.986a.447.447 0 0 1-.45.45h-2.214a.47.47 0 0 1-.333-.126.423.423 0 0 1-.135-.324v-4.986c0-.552-.12-.957-.36-1.215-.24-.258-.552-.387-.936-.387-.372 0-.678.129-.918.387s-.36.657-.36 1.197v5.004a.447.447 0 0 1-.45.45h-2.268zm18.9.18a4.024 4.024 0 0 1-1.737-.369c-.522-.246-.93-.585-1.224-1.017a2.474 2.474 0 0 1-.441-1.422c0-.816.339-1.479 1.017-1.989.678-.51 1.611-.861 2.799-1.053l2.232-.342v-.216c0-.444-.09-.768-.27-.972-.18-.204-.486-.306-.918-.306a1.3 1.3 0 0 0-.603.126c-.162.084-.345.21-.549.378a2.182 2.182 0 0 1-.414.288c-.048.084-.108.126-.18.126H89.86a.402.402 0 0 1-.297-.117.326.326 0 0 1-.099-.279c.012-.324.174-.687.486-1.089.312-.402.786-.747 1.422-1.035.636-.288 1.422-.432 2.358-.432 1.488 0 2.592.327 3.312.981.72.654 1.08 1.539 1.08 2.655v5.454a.447.447 0 0 1-.45.45h-2.214a.432.432 0 0 1-.315-.135.432.432 0 0 1-.135-.315v-.63c-.264.372-.63.675-1.098.909-.468.234-1.026.351-1.674.351zm.9-2.124c.528 0 .957-.174 1.287-.522.33-.348.495-.852.495-1.512v-.216l-1.494.252c-1.008.192-1.512.552-1.512 1.08 0 .276.117.498.351.666.234.168.525.252.873.252z" fill="currentColor" fill-rule="nonzero"/>
          <path d="M6.304 29.302C19.611 26.043 32.677 23.776 45.5 22.5c12.526-1.246 26.334-2.11 41.425-2.593a1.883 1.883 0 0 1 1.943 1.952 2.092 2.092 0 0 1-2.087 2.015c-14.319.03-27.985.616-40.999 1.754a406.825 406.825 0 0 0-39.36 5.37.734.734 0 0 1-.867-.673.986.986 0 0 1 .75-1.023z" fill="currentColor"/>
        </g>
    </symbol>

    <symbol id="target" viewBox="0 0 20 20">
      <g fill="#A1A9C3" fill-rule="evenodd">
        <path d="M17 9h2a1 1 0 0 1 0 2h-2a1 1 0 0 1 0-2zM1 9h2a1 1 0 1 1 0 2H1a1 1 0 0 1 0-2zm9-9a1 1 0 0 1 1 1v2a1 1 0 0 1-2 0V1a1 1 0 0 1 1-1zm0 16a1 1 0 0 1 1 1v2a1 1 0 0 1-2 0v-2a1 1 0 0 1 1-1z" fill-rule="nonzero" opacity=".3"/>
        <circle opacity=".3" cx="10" cy="10" r="2"/>
        <path d="M10 15a5 5 0 1 0 0-10 5 5 0 0 0 0 10zm0 2a7 7 0 1 1 0-14 7 7 0 0 1 0 14z" fill-rule="nonzero"/>
      </g>
    </symbol>

    <symbol id="marker" viewBox="0 0 15 18">
      <path d="M0 7.5C0 3 3 0 7.5 0S15 3.75 15 7.5c0 2.333-2.176 5.536-6.529 9.61a1.5 1.5 0 0 1-1.994.05C2.16 13.507 0 10.287 0 7.5zM7.5 9a2.5 2.5 0 1 0 0-5 2.5 2.5 0 0 0 0 5z" fill="currentColor" fill-rule="nonzero"/>
    </symbol>

    <symbol id="datepicker" viewBox="0 0 15 12">
      <g fill="none" fill-rule="evenodd">
        <path d="M5 0h5v1a1 1 0 0 0 2 0V0h1a2 2 0 0 1 2 2v8a2 2 0 0 1-2 2H2a2 2 0 0 1-2-2V2a2 2 0 0 1 2-2h1v1a1 1 0 1 0 2 0V0zm3 4a1 1 0 1 1 0 2 1 1 0 0 1 0-2zm4 0a1 1 0 1 1 0 2 1 1 0 0 1 0-2zM4 8a1 1 0 1 1 0 2 1 1 0 0 1 0-2zm4 0a1 1 0 1 1 0 2 1 1 0 0 1 0-2zm4 0a1 1 0 1 1 0 2 1 1 0 0 1 0-2z" fill="#A1A9C3"/>
        <rect fill="#CDD3E7" x="3" y="4" width="2" height="2" rx="1"/>
      </g>
    </symbol>

    <symbol id="arrow" viewBox="0 0 8 14">
      <path d="M7.707 1.707A1 1 0 1 0 6.293.293l-6 6a1 1 0 0 0-.03 1.383l5.5 6a1 1 0 1 0 1.474-1.352L2.384 7.03l5.323-5.323z" fill="currentColor" fill-rule="nonzero"/>
    </symbol>

    <symbol id="user" viewBox="0 0 14 14">
      <g fill="currentColor" fill-rule="nonzero">
        <path d="M7 6a3 3 0 1 1 0-6 3 3 0 0 1 0 6z" opacity=".3"/>
        <path d="M0 13.4C.303 9.82 3.316 8 6.988 8c3.724 0 6.783 1.72 7.011 5.4.01.147 0 .6-.584.6H.566c-.195 0-.582-.406-.565-.6z"/>
      </g>
    </symbol>

    <symbol id="train" viewBox="0 0 14 19">
      <path d="M7 15.667c-3.729 0-6.8-2.296-6.8-5.685 0-1.64 1.097-5.028 1.097-5.028C2.065 2.44 4.368.8 7 .8s4.826 1.749 5.703 4.154c0 0 1.097 3.39 1.097 5.028 0 3.39-3.071 5.685-6.8 5.685zM3.052 5.282v1.64c0 .656.438 1.093 1.096 1.093h5.704c.658 0 1.096-.437 1.096-1.093v-1.64c0-.656-.438-1.093-1.096-1.093H4.148c-.658 0-1.096.437-1.096 1.093zm7.238 10.932c.33-.11.548-.219.658-.328l2.304 2.514h-2.194l-.22-.656H3.052l-.22.656H.638l2.304-2.514c.22.11.439.218.768.328l-.22.656h7.02l-.22-.656zm0-3.39c.545 0 .988-.44.988-.983a.986.986 0 0 0-.988-.984.985.985 0 0 0 0 1.968zm-6.58 0a.985.985 0 1 0 0-1.967.986.986 0 0 0-.988.984c0 .544.443.984.988.984z" fill="currentColor" fill-rule="nonzero"/>
    </symbol>

    <symbol id="circle" viewBox="0 0 11 11">
      <path d="M5.5 11a5.5 5.5 0 1 0 0-11 5.5 5.5 0 0 0 0 11zm0-2a3.5 3.5 0 1 1 0-7 3.5 3.5 0 0 1 0 7z" fill="currentColor" fill-rule="nonzero"/>
    </symbol>


    <symbol id="filter" viewBox="0 0 17 14">
      <g fill="currentColor" fill-rule="evenodd">
        <path d="M1.5 2h5a1.5 1.5 0 0 1 0 3h-5a1.5 1.5 0 0 1 0-3zm9 8h5a1.5 1.5 0 0 1 0 3h-5a1.5 1.5 0 0 1 0-3z" opacity=".3"/>
        <path d="M14 6a3 3 0 1 1 0-6 3 3 0 0 1 0 6zM3 14a3 3 0 1 1 0-6 3 3 0 0 1 0 6z"/>
      </g>
    </symbol>


</svg>
