<!--
 * Train - v1.0
 * Copyright 2018 train.ma | @Train
 -->
<svg xmlns="http://www.w3.org/2000/svg" style="display: none;">

    <symbol id="hamburger" viewBox="0 0 16 13">
        <g transform="matrix(-1 0 0 1 16 0)" fill="#36506F" fill-rule="evenodd">
          <rect width="16" height="3" rx="1.5"/>
          <path d="M1.5 10h13a1.5 1.5 0 0 1 0 3h-13a1.5 1.5 0 0 1 0-3zm0-5h7a1.5 1.5 0 0 1 0 3h-7a1.5 1.5 0 0 1 0-3z" opacity=".3"/>
        </g>
    </symbol>

    <symbol id="logo" viewBox="0 0 99 31">
        <g fill="none" fill-rule="evenodd">
          <path d="M11.278 19.56c-.224 0-.404-.052-.54-.156a1.77 1.77 0 0 1-.372-.396l-.816-1.056c-.592.192-1.272.288-2.04.288-2.272 0-4.064-.552-5.376-1.656C.822 15.48.126 13.856.046 11.712a63.816 63.816 0 0 1-.024-2.064c0-.928.008-1.624.024-2.088.08-2.112.784-3.74 2.112-4.884C3.486 1.532 5.27.96 7.51.96s4.024.572 5.352 1.716c1.328 1.144 2.032 2.772 2.112 4.884.032.928.048 1.624.048 2.088 0 .48-.016 1.168-.048 2.064-.096 1.952-.68 3.48-1.752 4.584l1.776 2.52a.566.566 0 0 1 .072.24v.072a.398.398 0 0 1-.144.3.482.482 0 0 1-.336.132h-3.312zM7.51 14.64c.832 0 1.496-.252 1.992-.756s.76-1.276.792-2.316c.032-.928.048-1.592.048-1.992 0-.4-.016-1.048-.048-1.944-.032-1.04-.296-1.812-.792-2.316-.496-.504-1.16-.756-1.992-.756-.832 0-1.496.252-1.992.756s-.76 1.276-.792 2.316a58.75 58.75 0 0 0-.024 1.944c0 .864.008 1.528.024 1.992.032 1.04.296 1.812.792 2.316.496.504 1.16.756 1.992.756zM18.07 3.792a.564.564 0 0 1-.432-.18.626.626 0 0 1-.168-.444V.936c0-.176.06-.324.18-.444s.26-.18.42-.18h3c.176 0 .324.06.444.18s.18.268.18.444v2.232c0 .176-.06.324-.18.444a.603.603 0 0 1-.444.18h-3zm0 14.208c-.16 0-.3-.06-.42-.18a.576.576 0 0 1-.18-.42V6.12a.596.596 0 0 1 .6-.6h3c.176 0 .324.056.444.168.12.112.18.256.18.432V17.4c0 .176-.06.32-.18.432a.626.626 0 0 1-.444.168h-3zm12.912 0c-3.392 0-5.088-1.592-5.088-4.776v-4.44h-1.896c-.16 0-.3-.06-.42-.18a.576.576 0 0 1-.18-.42V6.12a.596.596 0 0 1 .6-.6h1.896V1.56a.596.596 0 0 1 .6-.6h2.952c.176 0 .32.056.432.168a.585.585 0 0 1 .168.432v3.96h3c.176 0 .324.056.444.168.12.112.18.256.18.432v2.064c0 .176-.06.32-.18.432a.626.626 0 0 1-.444.168h-3v4.08c0 .56.104.984.312 1.272.208.288.544.432 1.008.432h1.896c.176 0 .32.06.432.18.112.12.168.268.168.444V17.4a.596.596 0 0 1-.6.6h-2.28zm8.592.24c-.848 0-1.62-.164-2.316-.492-.696-.328-1.24-.78-1.632-1.356a3.3 3.3 0 0 1-.588-1.896c0-1.088.452-1.972 1.356-2.652.904-.68 2.148-1.148 3.732-1.404l2.976-.456v-.288c0-.592-.12-1.024-.36-1.296s-.648-.408-1.224-.408c-.32 0-.588.056-.804.168-.216.112-.46.28-.732.504a2.91 2.91 0 0 1-.552.384c-.064.112-.144.168-.24.168h-2.784a.537.537 0 0 1-.396-.156.434.434 0 0 1-.132-.372c.016-.432.232-.916.648-1.452.416-.536 1.048-.996 1.896-1.38.848-.384 1.896-.576 3.144-.576 1.984 0 3.456.436 4.416 1.308.96.872 1.44 2.052 1.44 3.54V17.4a.596.596 0 0 1-.6.6H43.87c-.16 0-.3-.06-.42-.18a.576.576 0 0 1-.18-.42v-.84c-.352.496-.84.9-1.464 1.212-.624.312-1.368.468-2.232.468zm1.2-2.832c.704 0 1.276-.232 1.716-.696.44-.464.66-1.136.66-2.016v-.288l-1.992.336c-1.344.256-2.016.736-2.016 1.44 0 .368.156.664.468.888.312.224.7.336 1.164.336zM50.638 18c-.16 0-.3-.06-.42-.18a.576.576 0 0 1-.18-.42V6.144c0-.176.056-.324.168-.444a.564.564 0 0 1 .432-.18h2.928c.176 0 .324.06.444.18s.18.268.18.444v.912a4.589 4.589 0 0 1 1.572-1.14c.6-.264 1.268-.396 2.004-.396h1.08c.176 0 .32.056.432.168a.585.585 0 0 1 .168.432v2.616a.596.596 0 0 1-.6.6h-2.424c-.64 0-1.132.176-1.476.528-.344.352-.516.848-.516 1.488V17.4c0 .176-.06.32-.18.432a.626.626 0 0 1-.444.168h-3.168zM61.702 3.792a.564.564 0 0 1-.432-.18.626.626 0 0 1-.168-.444V.936c0-.176.06-.324.18-.444s.26-.18.42-.18h3c.176 0 .324.06.444.18s.18.268.18.444v2.232c0 .176-.06.324-.18.444a.603.603 0 0 1-.444.18h-3zm0 14.208c-.16 0-.3-.06-.42-.18a.576.576 0 0 1-.18-.42V6.12a.596.596 0 0 1 .6-.6h3c.176 0 .324.056.444.168.12.112.18.256.18.432V17.4c0 .176-.06.32-.18.432a.626.626 0 0 1-.444.168h-3zm6.396 0a.47.47 0 0 1-.333-.126.423.423 0 0 1-.135-.324v-2.376c0-.132.045-.243.135-.333a.452.452 0 0 1 .333-.135h2.376c.132 0 .24.045.324.135a.47.47 0 0 1 .126.333v2.376a.447.447 0 0 1-.45.45h-2.376zm5.238 0a.432.432 0 0 1-.315-.135.432.432 0 0 1-.135-.315V9.09a.447.447 0 0 1 .45-.45h2.088c.132 0 .24.042.324.126a.439.439 0 0 1 .126.324v.612c.288-.348.66-.642 1.116-.882.456-.24.972-.36 1.548-.36 1.32 0 2.226.516 2.718 1.548.288-.456.69-.828 1.206-1.116a3.345 3.345 0 0 1 1.656-.432c.984 0 1.785.333 2.403.999.618.666.927 1.659.927 2.979v5.112a.447.447 0 0 1-.45.45h-2.214a.47.47 0 0 1-.333-.126.423.423 0 0 1-.135-.324v-4.986c0-.552-.117-.957-.351-1.215-.234-.258-.549-.387-.945-.387-.372 0-.675.129-.909.387-.234.258-.351.663-.351 1.215v4.986a.447.447 0 0 1-.45.45h-2.214a.47.47 0 0 1-.333-.126.423.423 0 0 1-.135-.324v-4.986c0-.552-.12-.957-.36-1.215-.24-.258-.552-.387-.936-.387-.372 0-.678.129-.918.387s-.36.657-.36 1.197v5.004a.447.447 0 0 1-.45.45h-2.268zm18.9.18a4.024 4.024 0 0 1-1.737-.369c-.522-.246-.93-.585-1.224-1.017a2.474 2.474 0 0 1-.441-1.422c0-.816.339-1.479 1.017-1.989.678-.51 1.611-.861 2.799-1.053l2.232-.342v-.216c0-.444-.09-.768-.27-.972-.18-.204-.486-.306-.918-.306a1.3 1.3 0 0 0-.603.126c-.162.084-.345.21-.549.378a2.182 2.182 0 0 1-.414.288c-.048.084-.108.126-.18.126H89.86a.402.402 0 0 1-.297-.117.326.326 0 0 1-.099-.279c.012-.324.174-.687.486-1.089.312-.402.786-.747 1.422-1.035.636-.288 1.422-.432 2.358-.432 1.488 0 2.592.327 3.312.981.72.654 1.08 1.539 1.08 2.655v5.454a.447.447 0 0 1-.45.45h-2.214a.432.432 0 0 1-.315-.135.432.432 0 0 1-.135-.315v-.63c-.264.372-.63.675-1.098.909-.468.234-1.026.351-1.674.351zm.9-2.124c.528 0 .957-.174 1.287-.522.33-.348.495-.852.495-1.512v-.216l-1.494.252c-1.008.192-1.512.552-1.512 1.08 0 .276.117.498.351.666.234.168.525.252.873.252z" fill="currentColor" fill-rule="nonzero"/>
          <path d="M6.304 29.302C19.611 26.043 32.677 23.776 45.5 22.5c12.526-1.246 26.334-2.11 41.425-2.593a1.883 1.883 0 0 1 1.943 1.952 2.092 2.092 0 0 1-2.087 2.015c-14.319.03-27.985.616-40.999 1.754a406.825 406.825 0 0 0-39.36 5.37.734.734 0 0 1-.867-.673.986.986 0 0 1 .75-1.023z" fill="#5FA25A"/>
        </g>
    </symbol>

    <symbol id="target" viewBox="0 0 20 20">
      <g fill="#A1A9C3" fill-rule="evenodd">
        <path d="M17 9h2a1 1 0 0 1 0 2h-2a1 1 0 0 1 0-2zM1 9h2a1 1 0 1 1 0 2H1a1 1 0 0 1 0-2zm9-9a1 1 0 0 1 1 1v2a1 1 0 0 1-2 0V1a1 1 0 0 1 1-1zm0 16a1 1 0 0 1 1 1v2a1 1 0 0 1-2 0v-2a1 1 0 0 1 1-1z" fill-rule="nonzero" opacity=".3"/>
        <circle opacity=".3" cx="10" cy="10" r="2"/>
        <path d="M10 15a5 5 0 1 0 0-10 5 5 0 0 0 0 10zm0 2a7 7 0 1 1 0-14 7 7 0 0 1 0 14z" fill-rule="nonzero"/>
      </g>
    </symbol>

    <symbol id="marker" viewBox="0 0 15 18">
      <path d="M0 7.5C0 3 3 0 7.5 0S15 3.75 15 7.5c0 2.333-2.176 5.536-6.529 9.61a1.5 1.5 0 0 1-1.994.05C2.16 13.507 0 10.287 0 7.5zM7.5 9a2.5 2.5 0 1 0 0-5 2.5 2.5 0 0 0 0 5z" fill="currentColor" fill-rule="nonzero"/>
    </symbol>

    <symbol id="datepicker" viewBox="0 0 15 12">
      <g fill="none" fill-rule="evenodd">
        <path d="M5 0h5v1a1 1 0 0 0 2 0V0h1a2 2 0 0 1 2 2v8a2 2 0 0 1-2 2H2a2 2 0 0 1-2-2V2a2 2 0 0 1 2-2h1v1a1 1 0 1 0 2 0V0zm3 4a1 1 0 1 1 0 2 1 1 0 0 1 0-2zm4 0a1 1 0 1 1 0 2 1 1 0 0 1 0-2zM4 8a1 1 0 1 1 0 2 1 1 0 0 1 0-2zm4 0a1 1 0 1 1 0 2 1 1 0 0 1 0-2zm4 0a1 1 0 1 1 0 2 1 1 0 0 1 0-2z" fill="#A1A9C3"/>
        <rect fill="#CDD3E7" x="3" y="4" width="2" height="2" rx="1"/>
      </g>
    </symbol>

    <symbol id="arrow" viewBox="0 0 8 14">
      <path d="M7.707 1.707A1 1 0 1 0 6.293.293l-6 6a1 1 0 0 0-.03 1.383l5.5 6a1 1 0 1 0 1.474-1.352L2.384 7.03l5.323-5.323z" fill="currentColor" fill-rule="nonzero"/>
    </symbol>

    <symbol id="user" viewBox="0 0 14 14">
      <g fill="currentColor" fill-rule="nonzero">
        <path d="M7 6a3 3 0 1 1 0-6 3 3 0 0 1 0 6z" opacity=".3"/>
        <path d="M0 13.4C.303 9.82 3.316 8 6.988 8c3.724 0 6.783 1.72 7.011 5.4.01.147 0 .6-.584.6H.566c-.195 0-.582-.406-.565-.6z"/>
      </g>
    </symbol>

    <symbol id="train" viewBox="0 0 14 19">
      <path d="M7 15.667c-3.729 0-6.8-2.296-6.8-5.685 0-1.64 1.097-5.028 1.097-5.028C2.065 2.44 4.368.8 7 .8s4.826 1.749 5.703 4.154c0 0 1.097 3.39 1.097 5.028 0 3.39-3.071 5.685-6.8 5.685zM3.052 5.282v1.64c0 .656.438 1.093 1.096 1.093h5.704c.658 0 1.096-.437 1.096-1.093v-1.64c0-.656-.438-1.093-1.096-1.093H4.148c-.658 0-1.096.437-1.096 1.093zm7.238 10.932c.33-.11.548-.219.658-.328l2.304 2.514h-2.194l-.22-.656H3.052l-.22.656H.638l2.304-2.514c.22.11.439.218.768.328l-.22.656h7.02l-.22-.656zm0-3.39c.545 0 .988-.44.988-.983a.986.986 0 0 0-.988-.984.985.985 0 0 0 0 1.968zm-6.58 0a.985.985 0 1 0 0-1.967.986.986 0 0 0-.988.984c0 .544.443.984.988.984z" fill="currentColor" fill-rule="nonzero"/>
    </symbol>

    <symbol id="circle" viewBox="0 0 11 11">
      <path d="M5.5 11a5.5 5.5 0 1 0 0-11 5.5 5.5 0 0 0 0 11zm0-2a3.5 3.5 0 1 1 0-7 3.5 3.5 0 0 1 0 7z" fill="currentColor" fill-rule="nonzero"/>
    </symbol>


    <symbol id="filter" viewBox="0 0 17 14">
      <g fill="currentColor" fill-rule="evenodd">
        <path d="M1.5 2h5a1.5 1.5 0 0 1 0 3h-5a1.5 1.5 0 0 1 0-3zm9 8h5a1.5 1.5 0 0 1 0 3h-5a1.5 1.5 0 0 1 0-3z" opacity=".3"/>
        <path d="M14 6a3 3 0 1 1 0-6 3 3 0 0 1 0 6zM3 14a3 3 0 1 1 0-6 3 3 0 0 1 0 6z"/>
      </g>
    </symbol>

    <symbol id="check" viewBox="0 0 11 8">
      <path d="M9.708.235a.785.785 0 0 1 1.034-.076c.308.238.346.659.083.94L4.592 7.764a.785.785 0 0 1-1.046.067l-3.3-2.667a.625.625 0 0 1-.06-.941.786.786 0 0 1 1.035-.056l2.74 2.214L9.707.235z" fill="currentColor" fill-rule="nonzero"/>
    </symbol>


    <symbol id="maestro" viewBox="0 0 33 20">
      <g fill="none" fill-rule="evenodd">
        <path d="M16.139 17.063A9.84 9.84 0 0 0 19.312 9.8a9.838 9.838 0 0 0-3.174-7.263A9.535 9.535 0 0 0 9.655 0C4.325 0 0 4.387 0 9.8c0 5.412 4.325 9.8 9.655 9.8 2.496 0 4.77-.96 6.484-2.538" fill="#009CDC" fill-rule="nonzero"/><path d="M16.139 17.063A9.841 9.841 0 0 0 19.312 9.8a9.84 9.84 0 0 0-3.174-7.263" fill="#009CDC" fill-rule="nonzero"/><path d="M16.139 17.063A9.841 9.841 0 0 0 19.312 9.8a9.84 9.84 0 0 0-3.174-7.263" stroke="#009CDC" stroke-width=".5"/>
        <path d="M22.62 0c-2.495 0-4.77.959-6.482 2.538-.35.32-.676.667-.975 1.037h1.95c.267.329.513.675.735 1.035h-3.422c-.205.336-.39.682-.556 1.039h4.533c.154.337.29.682.41 1.039H13.46c-.111.34-.204.686-.28 1.037h5.914c.142.668.217 1.363.217 2.075a9.916 9.916 0 0 1-.497 3.112H13.46c.118.354.254.7.41 1.039h4.534c-.165.357-.35.704-.556 1.039h-3.422c.223.36.47.706.737 1.035h1.95c-.3.37-.625.716-.975 1.038a9.527 9.527 0 0 0 6.479 2.537c5.334 0 9.656-4.388 9.656-9.8 0-5.413-4.322-9.8-9.655-9.8" fill="#ED2233" fill-rule="nonzero"/>
        <path d="M30.989 15.264c0-.176.14-.318.311-.318.174 0 .312.142.312.317a.314.314 0 0 1-.311.315.316.316 0 0 1-.312-.318v.004zm.311.24a.24.24 0 0 0 .238-.24.24.24 0 0 0-.238-.242.24.24 0 1 0 0 .48v.002zm-.04-.103h-.065v-.277h.115c.024 0 .049 0 .07.014.023.014.035.042.035.07a.08.08 0 0 1-.048.073l.053.123h-.07l-.042-.109h-.046v.112l-.003-.006zm0-.157h.034c.012 0 .027 0 .039-.005a.04.04 0 0 0 .016-.032.034.034 0 0 0-.017-.029c-.01-.007-.028-.004-.042-.004h-.032v.07h.001z" fill="#ED2233" fill-rule="nonzero"/>
        <path d="M8.149 12.527H6.935l.714-3.82-1.645 3.82H4.99l-.2-3.8-.795 3.8H2.89l.932-4.97h1.911l.021 3.076 1.323-3.075H9.1l-.951 4.969zm13.429-.05a3.11 3.11 0 0 1-.865.131c-.615 0-.95-.313-.95-.889 0-.113.011-.233.036-.36l.072-.397.057-.32.556-3.084h1.196l-.172.927h.612l-.165.983h-.615l-.318 1.685a.943.943 0 0 0-.02.167c0 .209.124.3.41.3.137 0 .243-.014.324-.039l-.16.893.002.002zM16.805 9.76c0 .511.283.861.926 1.124.49.203.567.262.567.444 0 .252-.217.364-.697.364-.364 0-.7-.052-1.092-.16l-.164.93.052.007.22.042c.07.014.176.025.316.035.29.021.51.035.668.035 1.281 0 1.873-.43 1.873-1.35 0-.554-.245-.883-.854-1.124-.511-.207-.57-.252-.57-.441 0-.217.2-.33.594-.33.238 0 .564.025.872.06l.175-.93a9.023 9.023 0 0 0-1.07-.081c-1.359 0-1.83.62-1.826 1.368l.01.007zm-4.777 2.758h-1.001l.024-.42c-.304.33-.71.487-1.261.487-.649 0-1.096-.448-1.096-1.103 0-.983.777-1.557 2.11-1.557.138 0 .311.01.49.031a.881.881 0 0 0 .047-.262c0-.268-.209-.368-.77-.368-.343 0-.73.044-.997.112l-.167.044-.109.025.165-.908c.6-.155.997-.213 1.44-.213 1.033 0 1.582.41 1.582 1.185 0 .2-.021.352-.1.801-.102.704-.273 1.432-.354 2.146h-.003zm-.807-1.8a2.095 2.095 0 0 0-.27-.017c-.678 0-1.025.207-1.025.615 0 .248.168.41.43.41.49 0 .844-.414.863-1.009l.002.002zm4.758 1.71c-.413.113-.81.165-1.232.165-1.344 0-2.043-.622-2.043-1.81 0-1.388.89-2.407 2.099-2.407.988 0 1.62.57 1.62 1.466 0 .298-.045.588-.147.998h-2.381a.71.71 0 0 0-.014.127c0 .469.357.707 1.056.707.427 0 .815-.08 1.246-.257l-.2 1.01-.004.002zm-.579-2.397c.008-.084.01-.154.01-.205 0-.328-.21-.522-.568-.522-.383 0-.656.26-.766.725l1.323.003.001-.001zm13.412.658c-.178 1.344-1.104 1.942-2.333 1.942-1.36 0-1.911-.837-1.911-1.862 0-1.433.93-2.404 2.368-2.404 1.25 0 1.911.798 1.911 1.823 0 .249 0 .266-.033.5h-.002zm-1.217-.483c0-.424-.17-.823-.662-.823-.612 0-.994.735-.994 1.386 0 .546.261.914.69.907.26 0 .815-.36.926-.987a2.97 2.97 0 0 0 .038-.483h.002z" fill="#003873" fill-rule="nonzero"/><path d="M28.947 11.925c0-.176.14-.318.312-.318a.316.316 0 0 1 0 .632.316.316 0 0 1-.312-.318v.004zm.312.239a.237.237 0 0 0 .236-.24.239.239 0 0 0-.236-.241.24.24 0 0 0 .001.48zm-.043-.102h-.063v-.277h.116c.024 0 .049 0 .07.014a.092.092 0 0 1 .035.07.08.08 0 0 1-.048.073l.05.123h-.07l-.043-.109h-.047v.109-.003zm0-.157h.036c.013 0 .028 0 .038-.005a.041.041 0 0 0 .018-.033c0-.01-.008-.021-.017-.027-.01-.01-.029-.007-.04-.007h-.035V11.905zM8.45 12.24H7.249l.714-3.82-1.646 3.82H5.223l-.2-3.799-.718 3.799h-1.09l.932-4.969h1.876l.098 3.077 1.323-3.077h1.954l-.947 4.969zm13.428-.05a3.095 3.095 0 0 1-.862.131c-.616 0-.952-.313-.952-.887 0-.112.013-.235.036-.36l.073-.393.056-.318.558-3.084h1.197l-.172.931h.616l-.165.98h-.619l-.315 1.687a.971.971 0 0 0-.02.168c0 .21.124.301.41.301.137 0 .243-.014.324-.038l-.161.896-.004-.014z" fill="#FFF" fill-rule="nonzero"/><path d="M24.968 9.36l-.028-.129.24-.632c-.056-.007-.08-.008-.092-.011l-.103-.023c-.036-.004-.076-.01-.121-.01-.395 0-.679.178-1.047.657l.128-.717h-1.246l-.74 4.032h1.194c.164-.927.237-1.454.333-1.891.16-.728.694-1.059 1.075-.984.042.007.08.008.135.03l.07.028.2-.35" fill="#003873" fill-rule="nonzero"/><path d="M25.389 8.233c-.1-.04-.122-.04-.136-.044l-.103-.024a.71.71 0 0 0-.121-.01c-.392 0-.68.179-1.043.656l.108-.61h-1.088l-.735 4.04h1.204c.434-2.471.616-2.905 1.193-2.905.042 0 .095.004.15.01l.144.03.438-1.143h-.011zm-8.274 1.243c0 .511.285.863.928 1.126.492.203.567.263.567.446 0 .252-.217.365-.698.365-.362 0-.7-.052-1.09-.16l-.166.93.053.01.224.043c.07.01.178.02.315.031.287.025.51.035.668.035 1.281 0 1.873-.427 1.873-1.347 0-.557-.249-.882-.858-1.127-.51-.207-.57-.252-.57-.441 0-.217.2-.33.595-.33.238 0 .563.022.875.06l.171-.938a8.996 8.996 0 0 0-1.07-.08c-1.362 0-1.835.62-1.831 1.365l.014.012zm-4.76 2.763h-.998l.023-.42c-.303.332-.709.49-1.26.49-.651 0-1.098-.451-1.098-1.104 0-.985.776-1.558 2.11-1.558.136 0 .311.01.49.03a.898.898 0 0 0 .046-.262c0-.267-.208-.367-.77-.367-.342 0-.731.043-.999.111l-.165.044-.108.027.166-.91c.6-.155.996-.214 1.44-.214 1.032 0 1.578.41 1.578 1.185 0 .2-.017.352-.098.8-.094.707-.276 1.43-.353 2.147l-.004.002zm-.875-1.801a2.248 2.248 0 0 0-.266-.016c-.679 0-1.025.206-1.025.613 0 .252.168.413.43.413.49 0 .847-.413.865-1.011h-.004zm4.827 1.714a4.748 4.748 0 0 1-1.232.164c-1.34-.003-2.04-.623-2.04-1.81 0-1.389.892-2.41 2.1-2.41.99 0 1.62.57 1.62 1.466 0 .297-.042.588-.147.997H14.21a.693.693 0 0 0-.013.126c0 .466.357.707 1.054.707.43 0 .818-.08 1.249-.255l-.2 1.008.007.007zm-.64-2.405a2.61 2.61 0 0 0 .01-.206c0-.33-.21-.522-.567-.522-.382 0-.655.26-.767.725h1.327l-.004.003zm13.467.658c-.178 1.344-1.102 1.94-2.334 1.94-1.358 0-1.908-.84-1.908-1.866 0-1.432.931-2.401 2.366-2.401 1.246 0 1.911.798 1.911 1.82 0 .248 0 .266-.031.5l-.004.007zM27.9 9.884c0-.424-.168-.823-.662-.823-.612 0-.994.735-.994 1.383 0 .546.263.913.693.906.26 0 .816-.36.928-.99.024-.147.038-.308.038-.483l-.003.007z" fill="#FFF" fill-rule="nonzero"/>
      </g>
    </symbol>

    <symbol id="visa" viewBox="0 0 51 17">
      <g fill-rule="nonzero" fill="none">
        <path d="M21.979 16.267h-4.047L20.462.434h4.047l-2.53 15.832zM14.524.434l-3.859 10.89-.457-2.345L8.85 1.86S8.685.433 6.929.433H.551L.477.702s1.952.412 4.235 1.81l3.515 13.755h4.217L18.883.433h-4.358zm27.381 10.232l2.129-5.926 1.197 5.926H41.905zm4.453 5.6h3.717L46.836.434h-3.251c-1.503 0-1.87 1.18-1.87 1.18L35.68 16.264h4.218l.844-2.351h5.146l.474 2.351-.003.002zM35.995 4.243l.578-3.4S34.79.15 32.932.15c-2.008 0-6.778.895-6.778 5.242 0 4.091 5.599 4.142 5.599 6.29 0 2.147-5.021 1.763-6.68.409l-.601 3.555s1.807.894 4.569.894c2.761 0 6.929-1.457 6.929-5.42 0-4.116-5.648-4.5-5.648-6.29s3.941-1.56 5.673-.588h-.001z" fill="#0066B2"/>
        <path d="M10.211 8.98L8.849 1.86S8.685.433 6.929.433H.551L.476.702s3.067.647 6.008 3.07C9.296 6.09 10.211 8.98 10.211 8.98" fill="#F9A533"/>
      </g>
    </symbol>

    <symbol id="master" viewBox="0 0 33 20">
        <g fill-rule="nonzero" fill="none">
          <path fill="#FBB231" d="M22.521 19.56l.494-.012.489-.035.479-.06.475-.084.462-.105.455-.13.444-.15.434-.171.427-.196.413-.21.4-.235.391-.248.375-.27.36-.283.35-.301.333-.319.318-.336.301-.35.284-.364.266-.374.248-.392.231-.403.21-.416.193-.427.171-.438.15-.448.13-.455.105-.465.084-.476.06-.483.035-.49.01-.497-.01-.494-.039-.486-.063-.48-.084-.469-.108-.462-.13-.455-.154-.448-.171-.434-.196-.427-.21-.416-.235-.4-.245-.391-.27-.378-.283-.36-.3-.35-.323-.337-.332-.318-.35-.301-.364-.287-.375-.27-.392-.248-.399-.231-.413-.21-.427-.196-.437-.172-.448-.154-.455-.13-.462-.104-.476-.084-.466-.07-.486-.042-.49-.015-.493.011-.487.035-.48.062-.472.084-.462.108-.455.13-.444.152-.434.172-.423.196-.41.21-.399.227-.388.249-.358.251-.363.287-.346.301-.334.318-.315.336-.3.35-.284.361-.263.377-.248.393-.228.399-.213.416-.19.424-.17.434-.148.448-.13.455-.104.462-.084.472-.06.48-.035.486-.01.494.014.497.035.49.063.48.084.475.108.462.13.459.15.448.172.437.192.427.214.417.23.402.25.392.265.375.287.364.301.35.319.336.336.318.346.301.36.29.375.27.389.249.402.234.41.21.423.196.438.172.444.154.455.13.462.104.473.084.476.06.49.035"/>
          <path fill="#EC1C2E" d="M9.697 19.56l.49-.012.49-.035.478-.06.472-.084.466-.105.455-.13.444-.15.438-.171.423-.196.413-.21.403-.235.388-.252.378-.27.364-.283.347-.3.332-.32.319-.335.3-.35.284-.364.266-.375.249-.392.23-.402.214-.417.193-.427.171-.44.15-.449.13-.455.109-.465.084-.476.063-.48.035-.49.014-.497-.014-.493-.035-.487-.063-.48-.084-.468-.109-.466-.13-.455-.146-.448-.172-.434-.189-.427-.21-.416-.227-.4-.27-.409-.266-.378-.284-.36-.3-.35-.317-.337-.333-.318-.346-.303-.363-.287-.377-.27-.389-.248-.401-.231-.412-.21-.423-.196-.436-.172-.443-.154-.455-.13L11.633.5 11.16.415l-.483-.07-.489-.038-.49-.012L9.2.308l-.487.036-.48.063L7.76.49l-.463.107-.456.13-.446.152-.434.172-.427.196-.413.211-.4.228-.391.248-.375.27-.36.287-.35.3-.333.32-.318.335-.301.35-.284.36-.266.375-.248.392-.231.4-.214.416-.194.423-.172.434-.152.448-.13.455-.105.466-.083.472-.064.481-.034.487-.014.493.011.497.035.49.063.482.084.48.105.465.13.459.152.451.172.441.194.427.21.417.234.402.249.396.269.378.284.364.3.35.32.336.332.322.349.304.36.287.376.27.392.252.402.234.416.21.427.196.436.172.447.154.455.13.462.108.476.087.48.063.487.035"/>
          <path d="M14.987 3.99h5.092v-.523h-4.652m-1.203 1.686h5.855V4.63h-5.548m-.876 1.684h6.425V5.79H13.88m-.618 1.687h6.816v-.524h-6.654m.065 6.145h6.606v-.523h-6.768m.65 1.686h6.118v-.523h-6.36m.927 1.683h5.433v-.523h-5.759m1.27 1.687h4.489v-.527h-4.944m-2.118-7.421h7.045v-.523h-6.945m4.193 3.824h2.688v-.523h-2.59m.116-.637h2.474v-.527h-2.377m-4.783 0h.7v.527h-.666" fill="#FBB231"/>
          <path fill="#FFF" d="M11.552 9.618l-.044-.004-.046-.006-.045-.006-.042-.007-.042-.006-.042-.007-.042-.006-.05-.007-.045-.006-.052-.003-.06-.004-.063-.003h-.066l-.077.003-.084.007-.095.006-.066.01-.063.011-.056.021-.05.021-.045.025-.042.028-.035.031-.031.032-.018.035-.017.035-.007.042v.038l.01.042.01.042.025.042.032.042.063.063.08.05.088.041.098.035.101.035.105.035.105.039.102.042.098.056.09.07.081.08.067.102.052.122.032.147.01.175-.014.207-.02.154-.04.133-.052.122-.066.109-.074.094-.084.08-.09.074-.102.063-.105.05-.109.041-.108.032-.112.028-.112.02-.105.011-.109.007-.101.004h-.14l-.13-.004h-.112l-.105-.003-.098-.004-.086-.007-.077-.007-.074-.007-.07-.007-.063-.01-.063-.01L9 12.31l-.056-.014-.052-.021-.053-.018-.056-.02.144-.718.028.007.035.01.045.014.054.014.06.014.066.01.07.015.077.014.08.01.084.014.088.007.09.01.095.004.095.004h.09l.095-.004.093-.017.074-.028.06-.035.045-.046.031-.045.027-.053.014-.052.014-.05.007-.094-.028-.08-.056-.067-.08-.056-.099-.045-.112-.05-.126-.045-.126-.052-.13-.06-.122-.066-.115-.084-.103-.098-.08-.123-.06-.147-.028-.171.003-.207.018-.126.024-.119.032-.108.038-.102.05-.098.055-.084.07-.08.08-.07.094-.06.102-.052.115-.05.13-.034.147-.029.157-.02.172-.011.192-.004h.12l.11.004.1.003.091.004.08.005.074.007.063.007.056.007.053.007.045.01.042.007.042.007.032.007.031.004.028.007.025.003M12.319 8.082h.896l-.133.786h.54l-.115.734-.57-.017-.309 1.813-.003.066.017.056.035.042.042.035.06.023.066.017.07.01.08.008.07-.004.067-.007.06-.01.052-.014.042-.014.032-.01.017-.008.007-.003-.112.602-.02.014-.025.01-.025.01-.024.015-.021.007-.025.01-.028.01-.028.008-.031.007-.032.007-.038.007-.039.007-.042.007-.049.007-.052.003-.056.007h-.245l-.13-.01-.112-.014-.101-.021-.088-.025-.073-.031-.063-.032-.053-.042-.042-.042-.031-.045-.021-.056-.018-.056-.01-.06-.004-.07v-.07l.01-.073.011-.08M22.049 9.063l-.042-.023-.042-.02-.046-.023-.048-.022-.05-.02-.053-.02-.056-.017-.057-.017-.06-.014-.063-.01-.066-.015-.067-.01-.073-.004-.074-.003h-.238l-.084.007-.084.01-.09.018-.092.024-.09.039-.092.045-.09.06-.085.073-.084.084-.08.105-.077.123-.07.143-.067.161-.06.182-.048.207-.021.115-.01.112-.008.116.004.112.007.112.024.105.028.098.035.098.05.087.059.084.07.077.08.07.088.06.101.049.112.042.123.031.042.01.049.011.06.007.062.007.07.007H21l.08-.007.085-.01.084-.014.084-.025.08-.024.08-.035.074-.042.067-.05.066-.059-.143.868-.02.014-.018.021-.028.025-.028.017-.036.028-.046.025-.052.024-.06.021-.073.025-.084.017-.098.014-.116.014-.126.007-.147.004-.164-.004-.182-.01-.147-.014-.15-.032-.148-.049-.147-.063-.143-.077-.137-.098-.13-.115-.118-.13-.109-.147-.09-.16-.078-.183-.06-.196-.038-.217-.014-.23.007-.253.035-.27.028-.132.028-.13.032-.126.031-.122.035-.113.042-.112.042-.109.046-.101.049-.102.049-.094.052-.091.06-.084.06-.084.066-.077.063-.074.066-.067.074-.066.073-.063.077-.053.08-.052.088-.05.088-.041.09-.039.095-.035.098-.031.102-.025.105-.024.108-.018.109-.017.115-.014.12-.007.122-.004.105.004.098.007.098.01.094.014.091.013.088.021.084.018.077.017.077.018.063.017.06.021.048.018.046.017.038.014.028.01.018.008M30.01 12.347h-.896l.065-.36v-.032l-.052.064-.056.06-.056.052-.06.046-.06.042-.059.035-.06.031-.062.032-.063.024-.063.018-.063.017-.067.01-.066.011-.063.007-.067.004H28.2l-.168-.014-.157-.035-.144-.053-.13-.073-.115-.095-.101-.108-.091-.12-.077-.136-.067-.147-.052-.15-.035-.158-.028-.168-.01-.164.003-.168.014-.165.028-.164.049-.193.056-.182.07-.164.08-.158.084-.147.095-.13.101-.118.105-.105.112-.095.12-.08.122-.07.122-.053.13-.045.13-.028.129-.018.133-.007.094.004.088.01.084.018.077.024.073.028.067.028.063.035.06.035.052.039.049.042.042.042.038.042.032.042.028.045.024.039.018.038.227-1.277h.879"/>
          <path fill="#FBB231" d="M28.545 11.561l.09-.006.084-.02.079-.022.073-.036.067-.039.063-.049.06-.052.052-.06.045-.063.046-.07.042-.073.035-.077.031-.08.025-.085.02-.087.018-.088.014-.087.01-.095v-.087l-.003-.091-.01-.084-.014-.08-.021-.078-.028-.073-.032-.063-.038-.063-.042-.053-.05-.045-.055-.039-.06-.024-.063-.018-.07-.007-.087.007-.08.014-.078.028-.073.032-.063.042-.067.052-.056.056-.056.063-.049.074-.045.077-.042.077-.035.084-.035.087-.028.088-.028.094-.021.095-.018.143.007.158.021.157.042.154.063.133.084.109.105.073"/>
          <path fill="#FFF" d="M8.688 11.626l-.13.721h-.815l.023-.133.017-.12.012-.091.014-.048-.046.051-.052.053-.06.048-.066.046-.077.045-.08.039-.085.039-.087.032-.095.03-.09.023-.095.02-.095.012-.094.004-.091.003-.091-.01-.088-.014-.112-.032-.101-.031-.091-.042-.08-.05-.07-.052-.064-.06-.052-.062-.046-.067-.038-.07-.032-.073-.024-.07-.021-.07-.01-.077-.008-.077-.007-.074v-.07l.01-.126.022-.119.035-.115.042-.112.052-.105.06-.095.07-.09.077-.085.084-.077.09-.07.095-.063.098-.052.105-.042.105-.035.109-.028.115-.021h.007l.018-.004.02-.003.036-.004.038-.007.046-.003.049-.007.056-.007.056-.007.056-.007.06-.004.052-.007.052-.003.05-.004.045-.003h.192l.07.003h.07l.06.004.045.003.032.004h.01l.007-.025.018-.06.014-.07.006-.059-.011-.07-.028-.066-.039-.06-.052-.049-.062-.042-.066-.031-.077-.021-.084-.007-.091-.004-.098-.003H7.35l-.103.003-.107.007-.101.01-.102.011-.098.014-.098.014-.09.014-.085.014-.077.014-.07.018-.056.017-.042.021-.035.018.231-.784.074-.028.07-.028.08-.025.077-.017.08-.014.085-.01.084-.015.087-.007.091-.007.095-.003.094-.004h.312l.112.004.112.003.09.007.099.014.098.021.105.032.098.038.098.046.098.052.09.06.081.073.074.08.066.088.05.098.03.105.022.109v.126l-.018.13"/>
          <path fill="#EC1C2E" d="M7.908 10.778l-.003-.016-.013-.016-.02-.01-.03-.006-.037-.007-.042-.004h-.097l-.051.004-.055.007-.053.006-.052.007-.05.007-.045.009-.038.007-.039.007-.024.007-.028.01-.039.01-.035.015-.042.017-.042.021-.045.021-.042.025-.046.031-.042.032L6.86 11l-.035.039-.035.042-.025.045-.02.05-.011.052-.004.108.014.088.032.066.042.05.049.03.052.018.05.01.052.004.094-.003.088-.01.084-.015.073-.02.063-.025.063-.032.056-.031.05-.035.041-.035.039-.039.031-.035.025-.038.024-.042.021-.039.018-.035.007-.035.024-.094.021-.109.018-.105"/>
          <path fill="#FFF" d="M1.884 12.347h-.879l.734-4.266h1.53l.145 2.531 1.057-2.53h1.598l-.753 4.266h-.878l.556-3.185H4.96l-1.316 3.189H2.65l-.007-.133-.023-.354-.03-.5-.031-.581-.033-.581-.028-.508-.024-.37-.007-.155H2.42M24.737 11.626l-.133.721h-.812l.007-.133.003-.117v-.087l.006-.039-.042.048-.049.05-.058.045-.064.045-.068.042-.077.042-.08.039-.08.035-.088.028-.091.028-.088.017-.09.014-.092.007-.09.004-.088-.01-.088-.015-.115-.028-.102-.031-.09-.042-.085-.05-.07-.048-.06-.06-.048-.06-.046-.062-.038-.067-.028-.07-.025-.07-.014-.07-.014-.073-.01-.074-.007-.07v-.073l.007-.126.017-.12.032-.111.042-.112.049-.105.063-.095.066-.09.074-.081.084-.074.087-.07.095-.06.101-.052.102-.045.105-.035.108-.028.109-.021h.007l.014-.004.024-.003.035-.004.042-.003.046-.004.049-.007.052-.007.056-.007.06-.007.056-.003.056-.007h.052l.046-.004.045-.003h.112l.08.003.074.004h.074l.06.003.052.004.028.003h.014l.007-.02.01-.06.01-.067.004-.06-.014-.07-.024-.066-.042-.06-.05-.048-.059-.042-.066-.032-.07-.02-.077-.008h-.091l-.098-.003h-.102l-.101.003-.105.007-.105.01-.102.011-.098.014-.098.014-.09.014-.085.014-.077.017-.07.021-.056.021-.045.021-.035.018.227-.784.07-.028.077-.027.074-.021.077-.018.084-.014.08-.014.084-.014.088-.003.087-.007.095-.004.094-.003h.294l.108.003.112.004.091.007.098.017.102.023.102.028.098.039.098.045.097.056.091.063.081.073.073.077.067.088.049.098.035.104.024.108v.105l-.017.13"/>
          <path fill="#FBB231" d="M23.953 10.778l-.006-.02-.012-.017-.023-.01-.035-.01-.035-.004-.042-.004h-.05l-.048.004-.053.007-.052.003-.053.007-.049.007-.049.01-.042.004-.042.01-.031.008-.025.003-.028.01-.031.011-.035.01-.042.018-.039.021-.045.021-.042.028-.042.028-.042.035-.035.035-.035.042-.032.046-.024.049-.021.052-.01.053-.004.112.014.087.024.067.039.049.049.031.056.018.052.01.056.004.095-.004.087-.01.084-.018.074-.024.07-.028.06-.032.059-.031.052-.039.046-.038.035-.042.035-.039.028-.045.02-.039.015-.038.014-.039.01-.035.014-.09.018-.095.014-.091"/>
          <path fill="#FFF" d="M24.98 12.347h.911l.326-1.848.013-.071.02-.073.017-.07.025-.072.031-.074.039-.07.042-.066.052-.063.056-.056.063-.053.074-.049.084-.038.09-.032.102-.028.112-.02.126-.008h.08l.148-.836-.091.007-.088.007-.08.014-.077.02-.074.025-.066.032-.067.035-.06.038-.059.046-.056.045-.052.053-.053.049-.049.052-.049.06-.049.056-.045.066.094-.588h-.906M16.416 12.347h.928l.31-1.848.014-.071.018-.07.017-.067.025-.065.028-.065.035-.06.038-.056.046-.052.052-.05.06-.048.073-.039.077-.035.091-.028.102-.024.108-.014.126-.007h.01l.015.003.017.004h.018l.017.003.014.004.01.003h.004l.004-.014.007-.038.014-.06.017-.073.021-.084.021-.091.028-.091.032-.091.028-.06.031-.063.032-.06.031-.052.032-.049.024-.038.018-.025.007-.007h-.004l-.014-.003-.014-.004-.02-.003h-.022l-.024-.004-.021-.003h-.025l-.101.007-.091.01-.084.014-.077.021-.074.025-.066.035-.06.031-.06.039-.055.042-.053.049-.045.049-.05.056-.048.056-.046.063-.049.066-.049.067.116-.588h-.935M15.64 10.203h-1.181V10.2h-.001l.008-.045.014-.069.02-.065.025-.065.032-.058.031-.056.035-.052.042-.049.042-.045.042-.039.05-.036.048-.03.056-.025.056-.02.056-.012.06-.01.063-.004.06.007.055.01.053.01.052.018.05.025.048.028.046.031.038.039.032.045.035.05.024.055.025.06.014.063.007.07.003.077-.007.08-.033.014zm.877-.3l-.026-.193-.046-.173-.064-.15-.082-.13-.098-.112-.108-.09-.12-.078-.125-.06-.13-.048-.133-.035-.133-.025-.133-.014-.126-.003-.262.01-.235.039-.21.06-.189.08-.164.098-.144.108-.126.123-.101.13-.091.136-.074.14-.06.14-.048.14-.035.136-.028.126-.021.12-.014.104-.018.266.01.238.036.217.052.193.077.171.091.15.109.134.126.108.136.095.144.08.15.063.158.046.16.038.162.025.16.014.158.003h.105l.102-.003h.091l.084-.004.073-.007.067-.007.064-.007.058-.01.056-.01.053-.015.052-.017.05-.018.045-.02.052-.022.05-.028.052-.028.13-.801-.095.056-.091.049-.095.038-.09.035-.088.028-.091.018-.088.017-.087.01-.088.008-.084.003h-.087l-.084-.003-.084-.007-.084-.01-.08-.011-.085-.014-.066-.01-.067-.025-.066-.028-.06-.035-.06-.039-.052-.049-.049-.049-.045-.056-.039-.056-.035-.063-.024-.06-.025-.062-.01-.063-.007-.063v-.056l.007-.042h2.096l.014-.2.05-.273.02-.248-.003-.22.053.058z"/>
        </g>
    </symbol>

    <symbol id="cmi" viewBox="0 0 35 14">
        <path d="M6.926 13.325c-3.674 0-5.95-2.54-5.95-6.67 0-4.123 2.267-6.663 5.95-6.663 3.006 0 5.308 1.995 5.502 4.755H9.844C9.589 3.288 8.438 2.33 6.926 2.33 4.93 2.33 3.69 3.982 3.69 6.654c0 2.672 1.24 4.333 3.244 4.333 1.52 0 2.663-.896 2.918-2.294h2.584c-.22 2.743-2.453 4.632-5.511 4.632zM28.31 13h-2.461V4.519h-.141l-3.226 7.795h-1.766L17.48 4.52h-.14V13H14.88V.317h3.129l3.507 8.56h.158l3.515-8.56h3.12V13zm5.73 0h-2.654V.317h2.654V13z" fill="#EC3F4A" fill-rule="nonzero"/>
    </symbol>


    <symbol id="download" viewBox="0 0 21 19">
      <g transform="rotate(90 10.25 10.25)" fill="#3DA483" fill-rule="evenodd">
        <rect opacity=".3" transform="rotate(90 6 10)" x="5" y="4" width="2" height="12" rx="1"/>
        <path d="M7.006 5a1 1 0 1 1-2 0V4a4 4 0 0 1 4-4h5.996A4 4 0 0 1 19 4v12a4 4 0 0 1-3.998 4H8.998A4 4 0 0 1 5 16v-1a1 1 0 1 1 2 0v1a2 2 0 0 0 1.998 2h6.004A2 2 0 0 0 17 16V4a2 2 0 0 0-2-2H9.006a2 2 0 0 0-1.999 2v1z" fill-rule="nonzero" opacity=".3"/>
        <path d="M9.293 7.707a1 1 0 0 1 1.414-1.414l3 3a1 1 0 0 1 0 1.414l-3 3a1 1 0 0 1-1.414-1.414L11.586 10 9.293 7.707z" fill-rule="nonzero"/>
      </g>
    </symbol>

    <symbol id="doubleCheck" viewBox="0 0 40 26">
      <g fill="#71CDB0" fill-rule="nonzero">
        <path d="M36.476.705a2 2 0 1 1 3.048 2.59l-17 20a2 2 0 0 1-2.853.2l-9-8a2 2 0 1 1 2.658-2.99l7.471 6.642L36.476.705z" opacity=".3"/>
        <path d="M26.476 2.705a2 2 0 1 1 3.048 2.59l-17 20a2 2 0 0 1-2.853.2l-9-8a2 2 0 1 1 2.658-2.99l7.471 6.642L26.476 2.705z"/>
      </g>
    </symbol>

    <symbol id="bookings" viewBox="0 0 10 20">
      <g>
        <path d="M0 6.25A.25.25 0 0 1 .25 6h9.5a.25.25 0 0 1 .25.25V18a2 2 0 0 1-2 2h-.75a.28.28 0 0 1-.25-.25A2 2 0 0 0 4.76 18 2 2 0 0 0 3 19.75a.26.26 0 0 1-.26.25H2a2 2 0 0 1-2-2zM.25 5A.25.25 0 0 1 0 4.75V2a2 2 0 0 1 2-2h.75A.28.28 0 0 1 3 .25 2 2 0 0 0 5.24 2 2 2 0 0 0 7 .25.26.26 0 0 1 7.25 0H8a2 2 0 0 1 2 2v2.75a.25.25 0 0 1-.25.25z" fill-rule="evenodd" fill="currentColor"/>
      </g>
    </symbol>


    <symbol id="ticket" viewBox="0 0 43 43">
      <path d="M4.269 31.699L.573 28.003a1 1 0 0 1 0-1.415l7.955-7.955 3.624 3.624a1 1 0 0 0 1.414 0l1.473-1.473a1 1 0 0 0 0-1.414l-3.624-3.624L26.588.573a1 1 0 0 1 1.415 0l3.696 3.696a5.106 5.106 0 0 0 7.074 7.074l3.696 3.696a1 1 0 0 1 0 1.414L27.296 31.627l-3.624-3.624a1 1 0 0 0-1.415 0l-1.473 1.473a1 1 0 0 0 0 1.414l3.624 3.624-7.955 7.955a1 1 0 0 1-1.414 0l-3.696-3.696a5.106 5.106 0 0 0-7.074-7.074zm10.74-7.998a1 1 0 0 0 0 1.414l2.917 2.917a1 1 0 0 0 1.415 0l1.473-1.473a1 1 0 0 0 0-1.414l-2.917-2.917a1 1 0 0 0-1.414 0L15.01 23.7z" fill="currentColor" fill-rule="evenodd"/>
    </symbol>

    <symbol id="baggage" viewBox="0 0 21 40">
      <g fill="none" fill-rule="evenodd">
        <rect fill="currentColor" y="9" width="21" height="27" rx="2"/>
        <rect fill="#FFF" opacity=".152" x="15" y="13" width="3" height="19" rx="1.5"/>
        <rect fill="currentColor" x="1" y="32" width="2" height="8" rx="1"/>
        <rect fill="currentColor" x="18" y="32" width="2" height="8" rx="1"/>
        <g transform="translate(7)" fill="currentColor">
          <rect y="1" width="1" height="7" rx=".5"/>
          <rect x="6" y="1" width="1" height="7" rx=".5"/>
          <rect transform="rotate(90 3.5 1.5)" x="2.5" y="-2" width="2" height="7" rx="1"/>
        </g>
      </g>
    </symbol>

    <symbol id="heart" viewBox="0 0 36 29">
      <path d="M26.625 0C23.54 0 19.932 3.497 18 5.75 16.068 3.497 12.46 0 9.375 0 3.915 0 .75 4.26.75 9.68.75 15.685 6.5 22.042 18 28.75c11.5-6.708 17.25-12.938 17.25-18.688C35.25 4.643 32.086 0 26.625 0z" fill="currentColor" fill-rule="nonzero"/>
    </symbol>


    <symbol id="envelope" viewBox="0 0 23 14">
      <g fill="none" fill-rule="evenodd">
        <path d="M8 8.167L20.447 7 8 5.833V.772a.5.5 0 0 1 .705-.456l13.84 6.228a.5.5 0 0 1 0 .912l-13.84 6.228A.5.5 0 0 1 8 13.228V8.167z" fill="#EC3F4A"/>
        <path d="M4 11h1a1 1 0 0 1 0 2H4a1 1 0 0 1 0-2zM1 6h4a1 1 0 1 1 0 2H1a1 1 0 1 1 0-2zm3-5h1a1 1 0 1 1 0 2H4a1 1 0 1 1 0-2z" fill="#5FA25A"/>
      </g>
    </symbol>


    <symbol id="times" viewBox="0 0 320 512">
      <path fill="currentColor" d="M193.94 256L296.5 153.44l21.15-21.15c3.12-3.12 3.12-8.19 0-11.31l-22.63-22.63c-3.12-3.12-8.19-3.12-11.31 0L160 222.06 36.29 98.34c-3.12-3.12-8.19-3.12-11.31 0L2.34 120.97c-3.12 3.12-3.12 8.19 0 11.31L126.06 256 2.34 379.71c-3.12 3.12-3.12 8.19 0 11.31l22.63 22.63c3.12 3.12 8.19 3.12 11.31 0L160 289.94 262.56 392.5l21.15 21.15c3.12 3.12 8.19 3.12 11.31 0l22.63-22.63c3.12-3.12 3.12-8.19 0-11.31L193.94 256z" class=""></path>
    </symbol>


    <symbol id="google" viewBox="0 0 488 512">
      <path fill="currentColor" d="M488 261.8C488 403.3 391.1 504 248 504 110.8 504 0 393.2 0 256S110.8 8 248 8c66.8 0 123 24.5 166.3 64.9l-67.5 64.9C258.5 52.6 94.3 116.6 94.3 256c0 86.5 69.1 156.6 153.7 156.6 98.2 0 135-70.4 140.8-106.9H248v-85.3h236.1c2.3 12.7 3.9 24.9 3.9 41.4z"></path>
    </symbol>


    <symbol id="facebook" viewBox="0 0 320 512">
      <path fill="currentColor" d="M279.14 288l14.22-92.66h-88.91v-60.13c0-25.35 12.42-50.06 52.24-50.06h40.42V6.26S260.43 0 225.36 0c-73.22 0-121.08 44.38-121.08 124.72v70.62H22.89V288h81.39v224h100.17V288z"></path>
    </symbol>



    <!--

    <symbol id="" viewBox="0 0 ">
    </symbol>
    <symbol id="" viewBox="0 0 ">
    </symbol>
    <symbol id="" viewBox="0 0 ">
    </symbol>


    <symbol id="" viewBox="0 0 ">
    </symbol>

    <symbol id="" viewBox="0 0 ">
    </symbol>

    <symbol id="" viewBox="0 0 ">
    </symbol> -->

</svg>
